<?xml version="1.0" standalone="no"?>
<!--<!DOCTYPE svg PUBLIC "-//W3C//DTD SVG 1.1//EN" "http://www.w3.org/Graphics/SVG/1.1/DTD/svg11.dtd" >-->
<!--
2013-9-30: Created.
-->
<svg>
<metadata>
Created by iconfont
</metadata>
<defs>

<font id="iconfont" horiz-adv-x="1024" >
  <font-face
    font-family="iconfont"
    font-weight="500"
    font-stretch="normal"
    units-per-em="1024"
    ascent="896"
    descent="-128"
  />
    <missing-glyph />
    
    <glyph glyph-name="home" unicode="&#59029;" d="M923.733333 501.333333c-85.333333 70.4-206.933333 174.933333-362.666666 309.333334C533.333333 834.133333 490.666667 834.133333 462.933333 810.666667c-155.733333-134.4-277.333333-238.933333-362.666666-309.333334-14.933333-14.933333-25.6-34.133333-25.6-53.333333 0-38.4 32-70.4 70.4-70.4H192v-358.4c0-29.866667 23.466667-53.333333 53.333333-53.333333H405.333333c29.866667 0 53.333333 23.466667 53.333334 53.333333v206.933333h106.666666v-206.933333c0-29.866667 23.466667-53.333333 53.333334-53.333333h160c29.866667 0 53.333333 23.466667 53.333333 53.333333V377.6h46.933333c38.4 0 70.4 32 70.4 70.4 0 21.333333-10.666667 40.533333-25.6 53.333333z m-44.8-59.733333h-57.6c-29.866667 0-53.333333-23.466667-53.333333-53.333333v-358.4h-138.666667V234.666667c0 29.866667-23.466667 53.333333-53.333333 53.333333h-128c-29.866667 0-53.333333-23.466667-53.333333-53.333333v-206.933334H256V388.266667c0 29.866667-23.466667 53.333333-53.333333 53.333333H145.066667c-4.266667 0-6.4 2.133333-6.4 6.4 0 2.133333 2.133333 4.266667 2.133333 6.4 85.333333 70.4 206.933333 174.933333 362.666667 309.333333 4.266667 4.266667 10.666667 4.266667 14.933333 0 155.733333-134.4 277.333333-238.933333 362.666667-309.333333 2.133333-2.133333 2.133333-2.133333 2.133333-4.266667 2.133333-6.4-2.133333-8.533333-4.266667-8.533333z"  horiz-adv-x="1024" />

    
    <glyph glyph-name="history" unicode="&#59030;" d="M411.733333 10.666667H192c-6.4 0-10.666667 4.266667-10.666667 10.666666V746.666667c0 6.4 4.266667 10.666667 10.666667 10.666666h576c6.4 0 10.666667-4.266667 10.666667-10.666666v-219.733334c0-17.066667 14.933333-32 32-32s32 14.933333 32 32V746.666667c0 40.533333-34.133333 74.666667-74.666667 74.666666H192C151.466667 821.333333 117.333333 787.2 117.333333 746.666667v-725.333334c0-40.533333 34.133333-74.666667 74.666667-74.666666h219.733333c17.066667 0 32 14.933333 32 32s-14.933333 32-32 32zM704 437.333333c-134.4 0-245.333333-110.933333-245.333333-245.333333S569.6-53.333333 704-53.333333 949.333333 57.6 949.333333 192 838.4 437.333333 704 437.333333z m0-426.666666c-100.266667 0-181.333333 81.066667-181.333333 181.333333s81.066667 181.333333 181.333333 181.333333 181.333333-81.066667 181.333333-181.333333-81.066667-181.333333-181.333333-181.333333zM802.133333 179.2l-66.133333 29.866667V298.666667c0 17.066667-14.933333 32-32 32s-32-14.933333-32-32v-110.933334c0-12.8 8.533333-23.466667 19.2-29.866666l85.333333-38.4c4.266667-2.133333 8.533333-2.133333 12.8-2.133334 12.8 0 23.466667 6.4 29.866667 19.2 6.4 17.066667 0 34.133333-17.066667 42.666667zM693.333333 597.333333c0 17.066667-14.933333 32-32 32H298.666667c-17.066667 0-32-14.933333-32-32s14.933333-32 32-32h362.666666c17.066667 0 32 14.933333 32 32zM298.666667 458.666667c-17.066667 0-32-14.933333-32-32s14.933333-32 32-32h106.666666c17.066667 0 32 14.933333 32 32s-14.933333 32-32 32h-106.666666z"  horiz-adv-x="1024" />

    
    <glyph glyph-name="file-open" unicode="&#59031;" d="M921.6 445.866667c-6.4 8.533333-14.933333 12.8-25.6 12.8h-10.666667V554.666667c0 40.533333-34.133333 74.666667-74.666666 74.666666H514.133333c-4.266667 0-6.4 2.133333-8.533333 4.266667l-38.4 66.133333c-12.8 21.333333-38.4 36.266667-64 36.266667H170.666667c-40.533333 0-74.666667-34.133333-74.666667-74.666667v-597.333333c0-6.4 2.133333-12.8 6.4-19.2 6.4-8.533333 14.933333-12.8 25.6-12.8h640c12.8 0 25.6 8.533333 29.866667 21.333333l128 362.666667c4.266667 10.666667 2.133333 21.333333-4.266667 29.866667zM170.666667 672h232.533333c4.266667 0 6.4-2.133333 8.533333-4.266667l38.4-66.133333c12.8-21.333333 38.4-36.266667 64-36.266667H810.666667c6.4 0 10.666667-4.266667 10.666666-10.666666v-96H256c-12.8 0-25.6-8.533333-29.866667-21.333334l-66.133333-185.6V661.333333c0 6.4 4.266667 10.666667 10.666667 10.666667z m573.866666-576H172.8l104.533333 298.666667h571.733334l-104.533334-298.666667z"  horiz-adv-x="1024" />

    
    <glyph glyph-name="import" unicode="&#59032;" d="M667.733333 32H170.666667c-6.4 0-10.666667 4.266667-10.666667 10.666667V725.333333c0 6.4 4.266667 10.666667 10.666667 10.666667h309.333333V576c0-40.533333 34.133333-74.666667 74.666667-74.666667h160v-38.4c0-17.066667 14.933333-32 32-32s32 14.933333 32 32V597.333333c0 8.533333-4.266667 17.066667-8.533334 23.466667l-170.666666 170.666667c-6.4 6.4-14.933333 8.533333-23.466667 8.533333H170.666667C130.133333 800 96 765.866667 96 725.333333v-682.666666c0-40.533333 34.133333-74.666667 74.666667-74.666667h497.066666c17.066667 0 32 14.933333 32 32s-14.933333 32-32 32z m46.933334 550.4v-17.066667H554.666667c-6.4 0-10.666667 4.266667-10.666667 10.666667V736h19.2l151.466667-153.6zM853.333333 298.666667H599.466667l51.2 51.2c12.8 12.8 12.8 32 0 44.8-12.8 12.8-32 12.8-44.8 0l-106.666667-106.666667c-12.8-12.8-12.8-32 0-44.8l106.666667-106.666667c6.4-6.4 14.933333-8.533333 23.466666-8.533333s17.066667 2.133333 23.466667 8.533333c12.8 12.8 12.8 32 0 44.8L599.466667 234.666667H853.333333c17.066667 0 32 14.933333 32 32S870.4 298.666667 853.333333 298.666667z"  horiz-adv-x="1024" />

    
    <glyph glyph-name="menu" unicode="&#59033;" d="M170.666667 682.666667m-64 0a64 64 0 1 1 128 0 64 64 0 1 1-128 0ZM170.666667 384m-64 0a64 64 0 1 1 128 0 64 64 0 1 1-128 0ZM170.666667 85.333333m-64 0a64 64 0 1 1 128 0 64 64 0 1 1-128 0ZM896 117.333333H362.666667c-17.066667 0-32-14.933333-32-32s14.933333-32 32-32h533.333333c17.066667 0 32 14.933333 32 32s-14.933333 32-32 32zM362.666667 650.666667h533.333333c17.066667 0 32 14.933333 32 32s-14.933333 32-32 32H362.666667c-17.066667 0-32-14.933333-32-32s14.933333-32 32-32zM896 416H362.666667c-17.066667 0-32-14.933333-32-32s14.933333-32 32-32h533.333333c17.066667 0 32 14.933333 32 32s-14.933333 32-32 32z"  horiz-adv-x="1024" />

    
    <glyph glyph-name="play" unicode="&#59034;" d="M512 821.333333C270.933333 821.333333 74.666667 625.066667 74.666667 384S270.933333-53.333333 512-53.333333 949.333333 142.933333 949.333333 384 753.066667 821.333333 512 821.333333z m0-810.666666c-204.8 0-373.333333 168.533333-373.333333 373.333333S307.2 757.333333 512 757.333333 885.333333 588.8 885.333333 384 716.8 10.666667 512 10.666667zM708.266667 430.933333l-234.666667 134.4c-8.533333 4.266667-17.066667 6.4-25.6 6.4-29.866667 0-53.333333-23.466667-53.333333-53.333333v-268.8c0-8.533333 2.133333-19.2 6.4-25.6 10.666667-17.066667 27.733333-27.733333 46.933333-27.733333 8.533333 0 17.066667 2.133333 25.6 6.4l234.666667 134.4c8.533333 4.266667 14.933333 10.666667 19.2 19.2 6.4 12.8 8.533333 27.733333 4.266666 40.533333-2.133333 14.933333-10.666667 25.6-23.466666 34.133333z m-249.6-162.133333V499.2L661.333333 384l-202.666666-115.2z"  horiz-adv-x="1024" />

    
    <glyph glyph-name="setting" unicode="&#59035;" d="M904.533333 473.6l-85.333333 14.933333-17.066667 38.4 49.066667 70.4c14.933333 21.333333 12.8 49.066667-6.4 68.266667l-53.333333 53.333333c-19.2 19.2-46.933333 21.333333-68.266667 6.4l-70.4-49.066666-38.4 17.066666-14.933333 85.333334c-2.133333 23.466667-23.466667 42.666667-49.066667 42.666666h-74.666667c-25.6 0-46.933333-19.2-53.333333-44.8l-14.933333-85.333333-38.4-17.066667L296.533333 725.333333c-21.333333 14.933333-49.066667 12.8-68.266666-6.4l-53.333334-53.333333c-19.2-19.2-21.333333-46.933333-6.4-68.266667l49.066667-70.4-17.066667-38.4-85.333333-14.933333c-21.333333-4.266667-40.533333-25.6-40.533333-51.2v-74.666667c0-25.6 19.2-46.933333 44.8-53.333333l85.333333-14.933333 17.066667-38.4L170.666667 168.533333c-14.933333-21.333333-12.8-49.066667 6.4-68.266666l53.333333-53.333334c19.2-19.2 46.933333-21.333333 68.266667-6.4l70.4 49.066667 38.4-17.066667 14.933333-85.333333c4.266667-25.6 25.6-44.8 53.333333-44.8h74.666667c25.6 0 46.933333 19.2 53.333333 44.8l14.933334 85.333333 38.4 17.066667 70.4-49.066667c21.333333-14.933333 49.066667-12.8 68.266666 6.4l53.333334 53.333334c19.2 19.2 21.333333 46.933333 6.4 68.266666l-49.066667 70.4 17.066667 38.4 85.333333 14.933334c25.6 4.266667 44.8 25.6 44.8 53.333333v74.666667c-4.266667 27.733333-23.466667 49.066667-49.066667 53.333333z m-19.2-117.333333l-93.866666-17.066667c-10.666667-2.133333-19.2-8.533333-23.466667-19.2l-29.866667-70.4c-4.266667-10.666667-2.133333-21.333333 4.266667-29.866667l53.333333-76.8-40.533333-40.533333-76.8 53.333333c-8.533333 6.4-21.333333 8.533333-29.866667 4.266667L576 128c-10.666667-4.266667-17.066667-12.8-19.2-23.466667l-17.066667-93.866666h-57.6l-17.066666 93.866666c-2.133333 10.666667-8.533333 19.2-19.2 23.466667l-70.4 29.866667c-10.666667 4.266667-21.333333 2.133333-29.866667-4.266667l-76.8-53.333333-40.533333 40.533333 53.333333 76.8c6.4 8.533333 8.533333 21.333333 4.266667 29.866667L256 320c-4.266667 10.666667-12.8 17.066667-23.466667 19.2l-93.866666 17.066667v57.6l93.866666 17.066666c10.666667 2.133333 19.2 8.533333 23.466667 19.2l29.866667 70.4c4.266667 10.666667 2.133333 21.333333-4.266667 29.866667l-53.333333 76.8 40.533333 40.533333 76.8-53.333333c8.533333-6.4 21.333333-8.533333 29.866667-4.266667L448 640c10.666667 4.266667 17.066667 12.8 19.2 23.466667l17.066667 93.866666h57.6l17.066666-93.866666c2.133333-10.666667 8.533333-19.2 19.2-23.466667l70.4-29.866667c10.666667-4.266667 21.333333-2.133333 29.866667 4.266667l76.8 53.333333 40.533333-40.533333-53.333333-76.8c-6.4-8.533333-8.533333-21.333333-4.266667-29.866667L768 448c4.266667-10.666667 12.8-17.066667 23.466667-19.2l93.866666-17.066667v-55.466666zM512 501.333333c-64 0-117.333333-53.333333-117.333333-117.333333s53.333333-117.333333 117.333333-117.333333 117.333333 53.333333 117.333333 117.333333-53.333333 117.333333-117.333333 117.333333z m0-170.666666c-29.866667 0-53.333333 23.466667-53.333333 53.333333s23.466667 53.333333 53.333333 53.333333 53.333333-23.466667 53.333333-53.333333-23.466667-53.333333-53.333333-53.333333z"  horiz-adv-x="1024" />

    
    <glyph glyph-name="home-filling" unicode="&#59036;" d="M925.866667 499.2l-32 27.733333c-78.933333 66.133333-185.6 157.866667-320 273.066667l-12.8 10.666667C533.333333 834.133333 490.666667 834.133333 462.933333 810.666667l-151.466666-130.133334c-85.333333-72.533333-155.733333-132.266667-211.2-179.2-17.066667-12.8-25.6-32-25.6-53.333333v-4.266667c2.133333-38.4 34.133333-66.133333 70.4-66.133333H192v-358.4c0-29.866667 23.466667-53.333333 53.333333-53.333333h164.266667c27.733333 2.133333 49.066667 25.6 49.066667 53.333333v185.6c0 12.8 8.533333 21.333333 21.333333 21.333333h64c12.8 0 21.333333-8.533333 21.333333-21.333333v-185.6c0-29.866667 23.466667-53.333333 53.333334-53.333333h164.266666c27.733333 2.133333 49.066667 25.6 49.066667 53.333333V377.6h46.933333c38.4 0 70.4 32 70.4 70.4 0 21.333333-8.533333 38.4-23.466666 51.2z"  horiz-adv-x="1024" />

    
    <glyph glyph-name="banquan" unicode="&#59787;" d="M512 800c229.76 0 416-186.24 416-416S741.76-32 512-32 96 154.24 96 384 282.24 800 512 800z m0-64C317.589333 736 160 578.410667 160 384S317.589333 32 512 32 864 189.589333 864 384 706.410667 736 512 736z m10.666667-170.666667c51.882667 0 100.522667-20.736 136.234666-56.704l4.586667-4.778666-46.933333-43.52a128 128 0 1 1-4.096-178.24l4.096 4.245333 46.933333-43.52A192 192 0 1 0 522.666667 565.333333z"  horiz-adv-x="1024" />

    
    <glyph glyph-name="anquanyinsi" unicode="&#59788;" d="M512 824.725333l373.333333-176.362666v-302.698667c0-162.048-133.034667-332.224-344.682666-392.469333l-8.853334-2.453334-19.797333-5.12-20.032 5.184C282.026667 6.954667 146.730667 171.904 138.986667 332.970667l-0.256 6.890666-0.064 308.48L512 824.746667z m-0.021333-70.784l-309.333334-146.112 0.085334-267.136c3.285333-129.6 112.789333-269.354667 288.341333-323.072l8.533333-2.538666 8.661334-2.389334 3.690666-0.96 3.541334 0.896c183.104 48.981333 298.581333 189.141333 305.493333 320.554667l0.256 6.250667 0.085333 6.229333V607.829333L511.978667 753.941333z m104.704-237.141333l45.248-45.248-203.648-203.648-143.296 143.296 45.248 45.248 98.026666-98.048 158.421334 158.4z"  horiz-adv-x="1024" />

    
    <glyph glyph-name="dicengjiagou" unicode="&#59789;" d="M849.066667 251.221333l64.32-35.754666-397.482667-226.794667L111.530667 215.466667l64.789333 35.754666 339.562667-188.672L849.066667 251.221333z m0 170.666667l64.32-35.754667-397.482667-226.794666L111.530667 386.133333l64.789333 35.754667 339.562667-188.672L849.066667 421.888zM515.904 785.493333L922.517333 556.8l-406.613333-228.714667L109.290667 556.8l406.613333 228.714667z m0-73.429333L239.829333 556.8l276.074667-155.264 276.053333 155.264-276.053333 155.285333z"  horiz-adv-x="1024" />

    
    <glyph glyph-name="cangchucangku" unicode="&#59790;" d="M512 773.824l423.509333-266.752-34.112-54.144-58.752 37.013333L842.666667-10.666667h-661.333334l-0.021333 500.608-58.709333-37.013333-34.112 54.144L512 773.824z m0-75.648l-266.688-167.936L245.333333 53.333333h533.333334l-0.021334 476.928L512 698.176z m150.4-454.592v-64H363.306667v64H662.4z m0 170.666667v-64H363.306667v64H662.4z"  horiz-adv-x="1024" />

    
    <glyph glyph-name="bingtutubiao" unicode="&#59791;" d="M512 778.666667c229.76 0 416-186.24 416-416S741.76-53.333333 512-53.333333 96 132.906667 96 362.666667 282.24 778.666667 512 778.666667z m-32-65.429334c-179.413333-16.170667-320-166.954667-320-350.570666 0-194.410667 157.589333-352 352-352 85.674667 0 164.202667 30.613333 225.237333 81.493333L498.752 330.666667H480V713.237333z m302.506667-575.786666a350.421333 350.421333 0 0 1 80.064 193.216H589.226667l193.28-193.237334zM544 713.216V394.666667h318.570667C847.36 563.498667 712.874667 698.026667 544 713.216z"  horiz-adv-x="1024" />

    
    <glyph glyph-name="chufang" unicode="&#59792;" d="M714.666667 778.666667v-64h170.666666v-704h-746.666666v704h170.666666v64h405.333334z m-405.333334-128h-106.666666v-576h618.666666v576h-106.666666v-64h-405.333334v64z m234.666667-128l-0.021333-160H704v-64h-160.021333l0.021333-160h-64l-0.021333 160H320v64h159.978667l0.021333 160h64z m106.666667 192h-277.333334v-64h277.333334v64z"  horiz-adv-x="1024" />

    
    <glyph glyph-name="chayan" unicode="&#59793;" d="M640 416a160 160 0 0 0 133.376-248.405333l113.216-112.938667-45.184-45.312-113.344 113.066667A160 160 0 1 0 640 416zM224 277.333333v-181.333333H405.333333v-64H160V277.333333h64zM640 352a96 96 0 1 1 0-192 96 96 0 0 1 0 192z m-234.666667 384v-64h-181.333333V490.666667h-64V736H405.333333z m458.666667 0V490.666667h-64v181.333333H618.666667v64h245.333333z"  horiz-adv-x="1024" />

    
    <glyph glyph-name="erweima" unicode="&#59794;" d="M874.666667 342.122667V149.333333h-192v128.021334h-64v-258.986667h-64V341.333333h192v-127.978666h64v128.768h64zM469.333333 341.333333v-320H149.333333V341.333333h320z m405.333334-256v-64h-192v64h192z m-469.333334 192h-192v-192h192v192z m-64-64v-64h-64v64h64z m128 533.333334v-320H149.333333V746.666667h320z m405.333334 0v-320H554.666667V746.666667h320z m-469.333334-64h-192v-192h192v192z m405.333334 0h-192v-192h192v192z m-469.333334-64v-64h-64v64h64z m405.333334 0v-64h-64v64h64z"  horiz-adv-x="1024" />

    
    <glyph glyph-name="fapiao" unicode="&#59795;" d="M926.421333 738.88v-341.333333H797.013333l0.021334-404.010667-156.266667 77.376-132.138667-66.773333-132.138666 66.773333-155.456-76.8-0.021334 403.434667H94.421333v341.333333h832z m-193.408-202.645333h-448v-439.125334l91.797334 45.333334 131.818666-66.56 131.882667 66.56 92.501333-45.781334V536.234667z m-96.064-244.202667v-64h-256v64h256z m0 147.050667v-64h-256v64h256z m225.472 235.818666h-704v-213.333333h62.592l0.021334 138.666667h576l-0.021334-138.666667h65.408v213.333333z"  horiz-adv-x="1024" />

    
    <glyph glyph-name="fenbushi" unicode="&#59796;" d="M744.277333 394.282667l179.797334-103.808v-207.616l-179.797334-103.808-179.797333 103.808v207.616l179.797333 103.808z m-461.866666 0l179.797333-103.808v-207.616l-179.818667-103.808-179.797333 103.808v207.616l179.797333 103.808z m461.866666-73.898667l-115.818666-66.858667v-133.696l115.818666-66.858666 115.797334 66.858666v133.696l-115.797334 66.858667z m-461.888 0l-115.797333-66.858667v-133.696l115.797333-66.858666 115.797334 66.858666v133.696l-115.797334 66.858667zM513.344 794.282667l179.797333-103.808v-207.616l-179.797333-103.808-179.797333 103.808V690.474667l179.797333 103.808z m-0.021333-73.898667l-115.797334-66.858667v-133.696l115.797334-66.858666 115.797333 66.858666v133.696l-115.797333 66.858667z"  horiz-adv-x="1024" />

    
    <glyph glyph-name="cunchu" unicode="&#59797;" d="M670.442667 757.333333L885.333333 542.506667V10.666667h-725.333333v746.666666h510.442667zM309.333333 693.397333l-85.333333-0.021333V74.666667h85.333333v234.666666h426.666667v-234.666666h85.333333V515.968l-177.408 177.386667H608V522.666667h-298.666667V693.376z m362.666667-448.042666h-298.666667v-170.666667h298.666667v170.666667zM597.802667 192v-64h-156.330667v64h156.330667zM544 693.333333h-170.666667v-106.666666h170.666667v106.666666z"  horiz-adv-x="1024" />

    
    <glyph glyph-name="dingdan" unicode="&#59798;" d="M714.666667 778.666667v-64h170.666666v-704h-746.666666v704h170.666666v64h405.333334z m-405.333334-128h-106.666666v-576h618.666666v576h-106.666666v-64h-405.333334v64zM704 277.333333v-64H320v64h384z m0 192v-64H320v64h384zM650.666667 714.666667h-277.333334v-64h277.333334v64z"  horiz-adv-x="1024" />

    
    <glyph glyph-name="fuwuqi" unicode="&#59799;" d="M864 757.333333v-768h-704v768h704z m-64-533.333333h-576v-170.666667h576v170.666667zM704 170.666667v-64h-128v64h128z m96 288h-576v-170.666667h576v170.666667zM704 405.333333v-64h-128v64h128z m96 288h-576v-170.666666h576v170.666666zM704 640v-64h-128v64h128z"  horiz-adv-x="1024" />

    
    <glyph glyph-name="fenzhi" unicode="&#59800;" d="M650.666667 778.666667v-256H554.666667v-106.666667h288v-170.666667h85.333333v-234.666666h-234.666667v234.666666h85.333334v106.666667h-512v-106.666667h85.333333v-234.666666h-234.666667v234.666666h85.333334v170.666667H490.666667v106.666667h-96v256h256z m-362.666667-597.333334h-106.666667v-106.666666h106.666667v106.666666z m576 0h-106.666667v-106.666666h106.666667v106.666666z m-277.333333 533.333334h-128v-128h128v128z"  horiz-adv-x="1024" />

    
    <glyph glyph-name="fengfuduoyuan" unicode="&#59801;" d="M433.066667 116.053333a138.666667 138.666667 0 1 0-167.338667 165.056V485.333333H169.685333v256h256v-92.778666h202.602667a138.709333 138.709333 0 0 0 131.52 114.026666l4.970667 0.085334a138.666667 138.666667 0 0 0 33.450666-273.28l-0.021333-215.232h94.570667v-256h-256v97.92h-203.690667z m-135.381334 104.746667a74.666667 74.666667 0 1 1 0-149.333333 74.666667 74.666667 0 0 1 0 149.333333z m531.093334-10.645333h-128v-128h128v128z m-196.970667 374.4h-206.122667v-99.221334h-95.957333v-204.245333a138.88 138.88 0 0 0 102.442667-101.013333h204.608v94.08h97.429333V488.704a138.901333 138.901333 0 0 0-102.4 95.829333z m132.970667 114.112a74.666667 74.666667 0 1 1 0-149.333334 74.666667 74.666667 0 0 1 0 149.333334z m-403.093334-21.333334h-128v-128h128v128z"  horiz-adv-x="1024" />

    
    <glyph glyph-name="gongchang" unicode="&#59802;" d="M522.666667 608v-149.333333h362.666666v-469.333334h-746.666666v618.666667h384z m-64-64h-256v-490.666667h618.666666v341.333334h-362.666666v149.333333zM746.666667 192v-64h-64v64h64z m-149.333334 0v-64h-64v64h64z m149.333334 128v-64h-64v64h64z m-149.333334 0v-64h-64v64h64z m-213.333333 138.410667v-64h-106.666667v64h106.666667z m20.288 317.056c42.496 8.042667 68.010667 3.669333 115.584-19.882667l16.917333-8.490667 9.109334-4.266666c19.626667-8.917333 31.466667-11.477333 46.613333-10.176l4.202667 0.426666 7.210666 1.109334 3.882667 0.682666a106.474667 106.474667 0 0 1 63.872 38.826667l3.328 4.416 52.053333-37.248-3.925333-5.290667a170.517333 170.517333 0 0 0-103.466667-63.573333c-42.496-8.021333-68.053333-3.648-115.605333 19.904l-16.917333 8.469333c-27.157333 13.248-40.149333 16.384-59.456 14.037334l-3.946667-0.533334-7.552-1.301333a106.602667 106.602667 0 0 1-63.914667-38.826667l-3.328-4.394666-52.032 37.290666 3.946667 5.269334A170.624 170.624 0 0 0 404.266667 775.466667z"  horiz-adv-x="1024" />

    
    <glyph glyph-name="hetong" unicode="&#59803;" d="M864 778.666667l0.021333-474.752A223.594667 223.594667 0 0 0 949.333333 128c0-123.712-100.288-224-224-224-61.013333 0-116.352 24.405333-156.757333 64H160v810.666667h704z m-138.666667-490.666667a160 160 0 1 1 0-320 160 160 0 0 1 0 320z m74.666667 426.666667h-576v-682.666667h298.88A223.146667 223.146667 0 0 0 501.333333 128c0 123.712 100.288 224 224 224 26.176 0 51.306667-4.48 74.666667-12.757333V714.666667zM725.333333 234.666667l31.36-63.509334 70.08-10.197333-50.709333-49.450667 11.946667-69.802666L725.333333 74.666667l-62.698666-32.96 11.968 69.802666-50.709334 49.450667 70.101334 10.197333L725.333333 234.666667z m-256 85.333333v-64h-149.333333v64h149.333333z m234.666667 149.333333v-64H320v64h384z m0 149.333334v-64H320v64h384z"  horiz-adv-x="1024" />

    
    <glyph glyph-name="haiguangangkou" unicode="&#59804;" d="M509.824 778.666667a202.666667 202.666667 0 0 0 202.666667-202.666667c0-99.84-72.213333-182.826667-167.253334-199.594667l-0.042666-110.613333h105.792v-64h-105.792v-122.837333a351.701333 351.701333 0 0 1 237.866666 125.824l-58.944 35.434666 167.744 92.8-3.178666-191.68-50.197334 30.165334a415.701333 415.701333 0 0 0-293.269333-156.778667v-100.394667h-64v100.202667a415.701333 415.701333 0 0 0-297.408 159.168L129.92 141.333333l-3.157333 191.68 167.744-92.8-55.381334-33.28a351.701333 351.701333 0 0 1 242.048-128.192V201.813333h-107.456v64h107.456v109.546667c-96.512 13.653333-171.157333 95.274667-173.952 194.901333l-0.085333 5.76a202.666667 202.666667 0 0 0 202.666667 202.666667z m0-64a138.666667 138.666667 0 1 1 0-277.333334 138.666667 138.666667 0 0 1 0 277.333334z"  horiz-adv-x="1024" />

    
    <glyph glyph-name="maijiagouwuche" unicode="&#59805;" d="M384 64v-85.333333h-85.333333v85.333333h85.333333z m405.333333 0v-85.333333h-85.333333v85.333333h85.333333zM240.32 710.997333l24.149333-140.928h633.173334L835.285333 149.333333h-563.626666l-85.333334 497.685334H94.485333v64h145.834667z m583.104-204.928H275.434667L325.632 213.333333h454.464l43.328 292.736z"  horiz-adv-x="1024" />

    
    <glyph glyph-name="user" unicode="&#59806;" d="M498.602667 704.256a204.714667 204.714667 0 0 0 116.906666-372.8c133.162667-47.317333 229.077333-173.290667 231.893334-322.026667l0.085333-6.784h-64c0 157.333333-127.573333 284.885333-284.885333 284.885334-155.136 0-281.301333-123.968-284.821334-278.250667l-0.085333-6.613333h-64c0 151.68 96.810667 280.746667 232 328.810666a204.714667 204.714667 0 0 0 116.906667 372.8z m0-64a140.714667 140.714667 0 1 1 0-281.450667 140.714667 140.714667 0 0 1 0 281.450667z"  horiz-adv-x="1024" />

    
    <glyph glyph-name="wenjianjia" unicode="&#59303;" d="M132.51584 775.5264h879.4368c33.26976 0 60.2368-26.96704 60.2368-60.23168v-409.6c0-33.26976-26.96704-60.2368-60.2368-60.2368H132.51584c-33.26464 0-60.23168 26.96704-60.23168 60.2368v409.6c0 33.26464 26.96704 60.2368 60.23168 60.2368zM469.8368 896c73.18528 0 132.51584-59.33056 132.51584-132.51584v-84.3264h469.8368c73.18528 0 132.51584-59.33568 132.51584-132.52096v-542.12096c0-73.18528-59.33056-132.51584-132.51584-132.51584H132.51584A132.51584 132.51584 0 0 0 0 4.51584V546.6368c0 4.03456 0.1792 8.06912 0.54272 12.04736A134.25664 134.25664 0 0 0 0 570.7264V763.48416C0 836.66944 59.33056 896 132.51584 896h337.32096z"  horiz-adv-x="1208" />

    
    <glyph glyph-name="JPG" unicode="&#59304;" d="M594.944 896l335.12448-341.31968v-563.2c0-65.9968-52.50048-119.48032-117.29408-119.48032H209.54624c-64.7936 0-117.2992 53.5296-117.2992 119.48032V776.51968C92.25216 842.51648 144.75776 896 209.55136 896H594.944zM930.06848 554.68032h-211.9168c-64.74752 0-123.20768 59.48928-123.20768 125.4912V896l335.12448-341.31968zM613.56032 469.31968H278.4256c-10.24 0-18.61632-8.4736-18.61632-18.944V146.944c0-10.4704 8.37632-18.944 18.61632-18.944h335.1296c10.28608 0 18.61632 8.4736 18.61632 18.944V450.37568a18.80576 18.80576 0 0 1-18.61632 18.944z m-37.23776-284.39552H315.66848v94.7712l55.8592 56.87296 93.08672-94.81216 55.8592 56.92416 55.84896-56.92416v-56.87808 0.0512z m-37.23776 151.64416a37.56032 37.56032 0 0 0-37.23264 37.9392c0 20.9408 16.66048 37.93408 37.23264 37.93408 20.57728 0 37.23776-16.99328 37.23776-37.9392 0-20.9408-16.66048-37.93408-37.23776-37.93408z"  horiz-adv-x="1024" />

    
    <glyph glyph-name="DOCX" unicode="&#59305;" d="M594.944 896l335.12448-341.31968v-563.2c0-65.9968-52.50048-119.48032-117.29408-119.48032H209.54624c-64.7936 0-117.2992 53.5296-117.2992 119.48032V776.51968C92.25216 842.51648 144.75776 896 209.55136 896H594.944zM930.06848 554.68032h-211.9168c-64.74752 0-123.20768 59.48928-123.20768 125.4912V896l335.12448-341.31968zM427.37664 170.68032V128H259.8144v42.68032h167.56224zM594.944 256v-42.68032H259.8144V256H594.944z m0 85.31968v-42.63936H259.8144v42.63936H594.944z m0 85.36064V384H259.8144v42.68032H594.944z"  horiz-adv-x="1024" />

    
    <glyph glyph-name="JAVA" unicode="&#59306;" d="M594.944 896l335.12448-341.31968v-563.2c0-65.9968-52.50048-119.48032-117.29408-119.48032H209.54624c-64.7936 0-117.2992 53.5296-117.2992 119.48032V776.51968C92.25216 842.51648 144.75776 896 209.55136 896H594.944zM930.06848 554.68032h-211.9168c-64.74752 0-123.20768 59.48928-123.20768 125.4912V896l335.12448-341.31968zM504.45824 315.392c49.52576 0 90.3424-40.86784 90.3424-92.02176 0-50.45248-40.81664-92.06784-90.3424-92.06784a86.10816 86.10816 0 0 0-51.57376 16.384c-6.05184 4.096-7.35232 12.94336-3.34848 19.08736a13.5424 13.5424 0 0 0 18.75456 3.39456c10.70592-7.44448 23.41376-11.58656 36.16768-11.58656 34.816 0 63.58016 29.32224 63.58016 64.78848 0 35.47136-28.76416 64.7936-63.58016 64.7936-32.768 0-60.1856-25.97376-63.30368-58.6496l-0.32256-6.144c0-50.45248-40.82176-92.06784-90.34752-92.06784-49.52576 0-90.38848 41.61536-90.38848 92.06784 0 50.4576 40.86272 92.02176 90.38848 92.02176 17.408 0 34.11968-4.74624 48.87552-14.2848 6.04672-4.096 8.00256-12.288 3.99872-19.08736a13.5936 13.5936 0 0 0-18.75456-4.096 60.8768 60.8768 0 0 1-34.11968 10.24c-34.816 0-63.58016-29.32224-63.58016-64.7936 0-35.46624 28.76416-64.78848 63.58016-64.78848 34.816 0 63.58016 29.32224 63.58016 64.78848 0 50.4576 40.82176 92.02176 90.3936 92.02176z"  horiz-adv-x="1024" />

    
    <glyph glyph-name="MP4" unicode="&#59307;" d="M594.944 896l335.12448-341.31968v-563.2c0-65.9968-52.50048-119.48032-117.29408-119.48032H209.54624c-64.7936 0-117.2992 53.5296-117.2992 119.48032V776.51968C92.25216 842.51648 144.75776 896 209.55136 896H594.944zM930.06848 554.68032h-211.9168c-64.74752 0-123.20768 59.48928-123.20768 125.4912V896l335.12448-341.31968zM519.68 289.37216v-66.42176l120.832-73.40032v213.0432zM534.528 383.86176H282.25024a22.48192 22.48192 0 0 1-22.2976-22.62016v-210.52928c0-12.38016 9.91744-22.66624 22.25152-22.66624h252.50816a22.48192 22.48192 0 0 1 22.25152 22.66624v210.7136a22.62016 22.62016 0 0 1-22.43584 22.43584zM356.2496 176.64v158.81216L483.328 256.0512 356.2496 176.64z"  horiz-adv-x="1024" />

    
    <glyph glyph-name="MP3" unicode="&#59308;" d="M594.944 896l335.12448-341.31968v-563.2c0-65.9968-52.50048-119.48032-117.29408-119.48032H209.54624c-64.7936 0-117.2992 53.5296-117.2992 119.48032V776.51968C92.25216 842.51648 144.75776 896 209.55136 896H594.944zM930.06848 554.68032h-211.9168c-64.74752 0-123.20768 59.48928-123.20768 125.4912V896l335.12448-341.31968zM568.7808 449.536V220.16a27.2384 27.2384 0 0 0-6.79424-18.24768 45.66016 45.66016 0 0 0-17.31584-12.38016 112.64 112.64 0 0 0-20.80256-6.51776c-6.9376-1.43872-13.40416-2.18624-19.40992-2.18624-6.05184 0-12.52352 0.74752-19.40992 2.14016a112.45568 112.45568 0 0 0-20.80768 6.56384 45.70624 45.70624 0 0 0-17.31584 12.38016A27.22816 27.22816 0 0 0 440.08448 220.16c0 6.84032 2.3296 12.89216 6.84032 18.24768a45.70624 45.70624 0 0 0 17.31584 12.38016c6.98368 2.93376 13.91616 5.12 20.80768 6.51776 6.8864 1.4848 13.35808 2.18624 19.4048 2.18624 14.05952 0 26.95168-2.65216 38.63552-8.00768V361.472L388.608 312.92416v-145.21856a27.22816 27.22816 0 0 0-6.79936-18.2016 45.66016 45.66016 0 0 0-17.31584-12.38016 112.64 112.64 0 0 0-20.80256-6.56384c-6.9376-1.39776-13.40416-2.14016-19.40992-2.14016-6.05184 0-12.52352 0.69632-19.40992 2.14016a112.50176 112.50176 0 0 0-20.80768 6.51776A45.70624 45.70624 0 0 0 266.752 149.504a27.23328 27.23328 0 0 0-6.84544 18.24768c0 6.79424 2.3296 12.89216 6.84544 18.19648a45.70624 45.70624 0 0 0 17.31072 12.38016c6.98368 2.93376 13.92128 5.12 20.80768 6.56384a94.80192 94.80192 0 0 0 19.4048 2.14016c14.05952 0 26.9568-2.65216 38.63552-7.95648V397.12768a19.87584 19.87584 0 0 0 13.68576 18.84672l167.28576 52.41344c1.80224 0.57856 3.6864 0.86016 5.5808 0.83968 5.4016 0 9.96352-1.90976 13.68576-5.72928 3.77344-3.86048 5.632-8.46848 5.632-13.96224z"  horiz-adv-x="1024" />

    
    <glyph glyph-name="PPT" unicode="&#59309;" d="M594.944 896l335.12448-341.31968v-563.2c0-65.9968-52.50048-119.48032-117.29408-119.48032H209.54624c-64.7936 0-117.2992 53.5296-117.2992 119.48032V776.51968C92.25216 842.51648 144.75776 896 209.55136 896H594.944zM930.06848 554.68032h-211.9168c-64.74752 0-123.20768 59.48928-123.20768 125.4912V896l335.12448-341.31968zM415.27808 444.55424c-85.83168 0-155.37152-70.84032-155.37152-158.208 0-87.36256 69.58592-158.208 155.37152-158.208 85.78048 0 155.3664 70.84544 155.3664 158.2592H415.2832v158.1568zM439.48032 469.2736v-158.2592h155.32032c0 87.41376-69.53984 158.2592-155.3664 158.2592h0.04608z"  horiz-adv-x="1024" />

    
    <glyph glyph-name="PDF" unicode="&#59310;" d="M594.944 896l335.12448-341.31968v-563.2c0-65.9968-52.50048-119.48032-117.29408-119.48032H209.54624c-64.7936 0-117.2992 53.5296-117.2992 119.48032V776.51968C92.25216 842.51648 144.75776 896 209.55136 896H594.944zM482.95424 520.51968a40.58624 40.58624 0 0 1-40.02816-40.77568c0-27.78624 15.17056-62.32576 31.1808-94.7712-12.56448-39.8336-26.71616-82.47296-44.82048-118.5024-37.0944-14.7968-70.1952-25.8304-90.0608-42.16832a41.70752 41.70752 0 0 1-12.3904-29.9264c0-22.34368 18.06336-40.77568 40.0384-40.77568a39.33184 39.33184 0 0 1 29.27104 12.47232c14.6176 17.82784 31.88736 50.12992 47.29344 79.6416 35.42016 14.19776 72.60672 28.672 108.44672 37.3248 26.1632-21.4528 64.0512-35.65056 95.18592-35.65056 21.96992 0 40.03328 18.38592 40.03328 40.77568a40.58624 40.58624 0 0 1-40.03328 40.72448c-24.99072 0-61.29664-9.07264-89.0368-18.61632a301.3376 301.3376 0 0 0-58.09152 76.98432c10.65984 33.3312 23.04 66.65728 23.04 92.48768a40.58624 40.58624 0 0 1-40.02816 40.77568z m0-24.43776c8.98048 0 16.01024-7.168 16.01024-16.29184 0-12.2368-6.42048-34.816-13.87008-59.01824C475.136 444.32384 466.944 466.944 466.944 479.744c0 9.1648 7.02464 16.29184 16.01024 16.29184v0.04608z m6.8864-139.5456a323.57376 323.57376 0 0 1 41.5232-53.76c-23.74144-6.6048-46.91968-15.0784-69.82144-23.92064 11.07968 25.36448 19.9168 51.75808 28.29824 77.72672v-0.04608z m157.2352-52.12672c8.98048 0 16.01024-7.12192 16.01024-16.29184 0-9.12384-7.02976-16.29184-16.01536-16.29184-18.05824 0-43.65824 8.28416-64.18432 19.87584 23.552 6.79424 49.2032 12.7488 64.18432 12.7488v-0.04096zM408.15104 231.424c-11.264-20.48-22.43584-39.56224-30.2592-49.152a15.0784 15.0784 0 0 0-11.02848-4.18816 15.96416 15.96416 0 0 0-16.01024 16.29184c0.03072 4.16256 1.53088 8.18688 4.23424 11.35616 9.40032 7.3984 29.83424 16.29184 53.06368 25.69216zM930.06848 554.68032h-211.9168c-64.74752 0-123.20768 59.48928-123.20768 125.4912V896l335.12448-341.31968z"  horiz-adv-x="1024" />

    
    <glyph glyph-name="XLS" unicode="&#59311;" d="M594.944 896l335.12448-341.31968v-563.2c0-65.9968-52.50048-119.48032-117.29408-119.48032H209.54624c-64.7936 0-117.2992 53.5296-117.2992 119.48032V776.51968C92.25216 842.51648 144.75776 896 209.55136 896H594.944zM930.06848 554.68032h-211.9168c-64.74752 0-123.20768 59.48928-123.20768 125.4912V896l335.12448-341.31968zM594.61632 469.17632v-0.2304h0.09216V128H566.8352v0.0512h-83.968 0.04608H399.7696h0.0512-139.91936v28.3904l0.0512 0.04608v85.82656h-0.0512v28.39552h0.0512v85.82656h-0.09728v28.39552l0.09216 0.04608V440.832h-0.09216v28.3904h334.70976l0.04608-0.04608z m-222.62784-226.86208H287.88224v-85.82656h84.10624v85.82656z m83.08224 0h-55.2448v-85.82656h55.19872v85.82656h0.0512z m111.75936 0H482.90816v-85.82656H566.784v85.82656h0.04608z m-194.8416 114.2272H287.88224v-85.83168h84.10624v85.82656z m83.08224 0h-55.2448v-85.83168h55.19872v85.82656h0.0512z m111.75936 0H482.90816v-85.83168H566.784v85.82656h0.04608z m0 84.24448H287.88224v-55.808H566.784V440.832l0.04608-0.0512z"  horiz-adv-x="1024" />

    
    <glyph glyph-name="ZIP" unicode="&#59312;" d="M594.944 896l335.12448-341.31968v-563.2c0-65.9968-52.50048-119.48032-117.29408-119.48032H209.54624c-64.7936 0-117.2992 53.5296-117.2992 119.48032V776.51968C92.25216 842.51648 144.75776 896 209.55136 896H594.944zM930.06848 554.68032h-211.9168c-64.74752 0-123.20768 59.48928-123.20768 125.4912V896l335.12448-341.31968zM516.8384 457.9584h-31.2832c-2.2272 0-3.34848-1.16224-4.46464-2.2784-1.11616-1.11616-1.11616-3.39968-1.11616-5.6832 2.23232-4.5568 3.3536-10.24 3.3536-14.7968v-147.9168l3.34848-22.76352c0-2.28352 2.23232-3.39968 3.3536-4.51584 1.11616 0 2.23232-1.16224 2.23232-1.16224l5.5808-3.39968a45.14816 45.14816 0 0 0 29.05088-42.12224v-51.2c0-2.28352 1.11616-4.51584 3.34848-4.51584 1.11616 0 1.11616-1.16224 2.23744-1.16224 1.11616 0 2.23232 0 3.34848 1.16224a32.62976 32.62976 0 0 1 13.40416 27.27424V423.84384a31.65184 31.65184 0 0 1-32.39424 34.11456zM376.0896 435.2l-14.52544-51.2a12.288 12.288 0 0 1 2.23232-13.63968c4.46976-4.5568 21.22752-4.5568 25.69216 0 3.2768 3.72736 4.5312 8.82176 3.3536 13.63968L378.3168 435.2h-2.23232zM366.0288 442.04032c1.12128 3.39968 3.3536 4.51584 5.58592 4.51584h11.17184c2.23744 0 4.46976-1.11616 5.58592-4.51584l6.7072-26.20416L404.00896 435.2l-13.40928 31.83616v2.3296H360.448v-2.3296L349.27616 435.2l8.9344-21.59616 7.81824 28.3904v0.0512zM354.39616 469.31968l-11.17184-31.84128v-4.5568L354.39616 404.48c0.6912-1.41312 1.90976-2.50368 3.39456-3.0208l2.19136-0.37888-4.46976-13.68064a23.64416 23.64416 0 0 1 5.5808-24.99584c4.47488-4.56192 12.288-6.84544 21.22752-6.84544s16.75776 2.28352 21.22752 6.84544a24.2944 24.2944 0 0 1 6.656 21.4528l-5.58592 18.34496c0.78848 0 1.536 0.512 1.95584 1.16224l0.32256 1.11616 14.52544 28.4416a3.49184 3.49184 0 0 1 0.7424 3.11808l-0.7424 1.39264-14.52544 31.88736h35.74784a33.0496 33.0496 0 0 0 33.23392-29.37344L476.16 435.2v-164.95616c0-8.79616 4.93056-15.9232 11.96032-19.92192l11.4944-5.12a32.86016 32.86016 0 0 0 22.016-26.99776l0.32768-4.88448v-51.2c0-17.6896-12.19584-31.65184-28.85632-33.8432l-4.6592-0.27648H298.5472a33.0496 33.0496 0 0 0-33.23392 29.4144l-0.2816 4.70528V435.2c0 17.6896 12.19584 31.65184 28.86144 33.8432l4.65408 0.27648h55.85408z m16.75264-284.39552H359.9872c-3.3536 0-5.58592-2.32448-5.58592-5.72416 0-2.74432 1.39264-4.74624 3.72224-5.44768l1.86368-0.2304h11.16672c3.3536 0 5.58592 2.2784 5.58592 5.67808 0 2.74432-1.39264 4.74624-3.72224 5.44768l-1.86368 0.2304v0.0512z m33.51552 11.35616h-11.17184c-3.34848 0-5.5808-2.32448-5.5808-5.72416 0-2.69824 1.39264-4.70016 3.71712-5.39648l1.86368-0.2816h11.17184c3.34848 0 5.5808 2.3296 5.5808 5.6832 0 2.7904-1.39264 4.74112-3.71712 5.44256l-1.86368 0.27648z m-33.51552 11.36128H359.9872c-3.3536 0-5.58592-2.28352-5.58592-5.6832 0-2.74432 1.39264-4.74624 3.72224-5.44256l1.86368-0.23552h11.16672c3.3536 0 5.58592 2.28352 5.58592 5.6832 0 2.74432-1.39264 4.74624-3.72224 5.39648l-1.86368 0.2816z m33.51552 11.40224h-11.17184c-3.34848 0-5.5808-2.3296-5.5808-5.72416 0-2.70336 1.39264-4.70528 3.71712-5.4016l1.86368-0.27648h11.17184c3.34848 0 5.5808 2.2784 5.5808 5.67808 0 2.74432-1.39264 4.74624-3.71712 5.44256l-1.86368 0.2816zM371.1488 230.4H359.9872c-3.3536 0-5.58592-2.2784-5.58592-5.6832 0-2.7392 1.39264-4.74112 3.72224-5.44256l1.86368-0.2304h11.16672c3.3536 0 5.58592 2.23232 5.58592 5.67808 0 2.69824-1.39264 4.70016-3.72224 5.39648L371.1488 230.4z m33.51552 11.35616h-11.17184c-3.34848 0-5.5808-2.23232-5.5808-5.67808 0-2.69824 1.39264-4.70016 3.71712-5.39648l1.86368-0.2816h11.17184c3.34848 0 5.5808 2.2784 5.5808 5.6832 0 2.7392-1.39264 4.74112-3.71712 5.44256l-1.86368 0.2304z m-33.51552 11.40224H359.9872c-3.3536 0-5.58592-2.2784-5.58592-5.67808 0-2.74432 1.39264-4.74624 3.72224-5.44256l1.86368-0.2816h11.16672c3.3536 0 5.58592 2.3296 5.58592 5.72416 0 2.70336-1.39264 4.70528-3.72224 5.4016l-1.86368 0.27648z m33.51552 11.36128h-11.17184c-3.34848 0-5.5808-2.28352-5.5808-5.6832 0-2.74432 1.39264-4.74624 3.71712-5.39648l1.86368-0.2816h11.17184c3.34848 0 5.5808 2.28352 5.5808 5.6832 0 2.74432-1.39264 4.74624-3.71712 5.44256l-1.86368 0.23552z m-33.51552 11.40224H359.9872c-3.3536 0-5.58592-2.3296-5.58592-5.6832 0-2.7904 1.39264-4.74112 3.72224-5.44256l1.86368-0.27648h11.16672c3.3536 0 5.58592 2.32448 5.58592 5.72416 0 2.69824-1.39264 4.70016-3.72224 5.39648l-1.86368 0.2816z m33.51552 11.35616h-11.17184c-3.34848 0-5.5808-2.2784-5.5808-5.67808 0-2.74432 1.39264-4.74624 3.71712-5.44768l1.86368-0.2304h11.17184c3.34848 0 5.5808 2.2784 5.5808 5.67808 0 2.74432-1.39264 4.74624-3.71712 5.44768l-1.86368 0.2304z m-33.51552 11.40224H359.9872c-3.3536 0-5.58592-2.32448-5.58592-5.72416 0-2.69824 1.39264-4.70016 3.72224-5.39648l1.86368-0.2816h11.16672c3.3536 0 5.58592 2.3296 5.58592 5.6832 0 2.7904-1.39264 4.74112-3.72224 5.44256l-1.86368 0.27648z m33.51552 11.36128h-11.17184c-3.34848 0-5.5808-2.28352-5.5808-5.6832 0-2.74432 1.39264-4.74624 3.71712-5.44256l1.86368-0.23552h11.17184c3.34848 0 5.5808 2.28352 5.5808 5.6832 0 2.74432-1.39264 4.74624-3.71712 5.39648l-1.86368 0.2816z m-33.51552 11.40224H359.9872c-3.3536 0-5.58592-2.3296-5.58592-5.72416 0-2.70336 1.39264-4.70528 3.72224-5.4016l1.86368-0.27648h11.16672c3.3536 0 5.58592 2.2784 5.58592 5.67808 0 2.74432-1.39264 4.74624-3.72224 5.44256l-1.86368 0.2816zM404.66432 332.8h-11.17184c-3.34848 0-5.5808-2.2784-5.5808-5.6832 0-2.7392 1.39264-4.74112 3.71712-5.44256l1.86368-0.2304h11.17184c3.34848 0 5.5808 2.23232 5.5808 5.67808 0 2.69824-1.39264 4.70016-3.71712 5.39648l-1.86368 0.2816z m-33.51552 11.35616H359.9872c-3.3536 0-5.58592-2.23232-5.58592-5.67808 0-2.69824 1.39264-4.70016 3.72224-5.39648l1.86368-0.2816h11.16672c3.3536 0 5.58592 2.2784 5.58592 5.6832 0 2.7392-1.39264 4.74112-3.72224 5.44256l-1.86368 0.2304z"  horiz-adv-x="1024" />

    
    <glyph glyph-name="div-1" unicode="&#59313;" d="M137.90246 895.99959a48.573421 48.573421 0 0 1-35.589106-15.293433A53.964778 53.964778 0 0 1 87.0404 845.065851V-72.345622a48.706541 48.706541 0 0 1 15.272954-35.640306 49.97118 49.97118 0 0 1 35.589106-15.293434h746.336982a48.639981 48.639981 0 0 1 35.589105 15.293434 50.37054 50.37054 0 0 1 15.272954 35.640306V607.282906L646.727857 895.99959H137.90246zM935.101501 607.282906h-237.445025c-27.822069 0.6656-50.22718 23.075831-50.928619 50.93374V895.99959l288.373644-288.716684zM415.257869 331.268936l-124.70267-49.26974 124.70267-49.27486v-39.096305l-172.175291 68.756453v39.096304l172.175291 68.756453v-38.963185zM539.02358 444.313371h39.045104l-95.016922-254.801818h-38.978544l94.950362 254.801818z m67.860452-212.377515l124.702671 49.26974-124.702671 49.269741v39.101424l172.175292-67.957733v-39.895024l-172.175292-68.823012V231.935856z"  horiz-adv-x="1024" />

    
    <glyph glyph-name="yuanwenjian-1" unicode="&#59314;" d="M137.90246 895.99959a48.573421 48.573421 0 0 1-35.589106-15.293433A53.964778 53.964778 0 0 1 87.0404 845.065851V-72.345622a48.706541 48.706541 0 0 1 15.272954-35.640306 49.97118 49.97118 0 0 1 35.589106-15.293434h746.336982a48.639981 48.639981 0 0 1 35.589105 15.293434 50.37054 50.37054 0 0 1 15.272954 35.640306V607.282906L646.727857 895.99959H137.90246zM935.101501 607.282906h-237.445025c-27.822069 0.6656-50.22718 23.075831-50.928619 50.93374V895.99959l288.373644-288.716684zM503.434474 246.35889c0-79.728608 64.542694-144.358342 144.153542-144.358342 79.615968 0 144.153542 64.629734 144.153543 144.358342 0 79.723488-64.537574 144.358342-144.153543 144.358343s-144.153542-64.634854-144.153542-144.358343zM367.713568 297.29263c-0.0256-58.419177 35.092466-111.103956 88.985565-133.478347a144.076742 144.076742 0 0 1 157.189057 31.262708 144.573382 144.573382 0 0 1 31.293427 157.404097c-22.318071 53.975018-74.90557 89.169884-133.247947 89.169884a144.051142 144.051142 0 0 1-101.974999-42.260463 144.460742 144.460742 0 0 1-42.245103-102.097879zM232.258902 356.735806c0-79.723488 64.537574-144.358342 144.153543-144.358342s144.153542 64.634854 144.153542 144.358342c0 79.728608-64.537574 144.358342-144.153542 144.358342a143.984582 143.984582 0 0 1-101.95452-42.260463 144.394182 144.394182 0 0 1-42.199023-102.092759z"  horiz-adv-x="1024" />

    
    <glyph glyph-name="wenjianjia-1" unicode="&#59315;" d="M1190.436486 726.805882a59.684567 59.684567 0 0 1-42.254625 18.132113H554.027846L421.098027 877.867814A63.071081 63.071081 0 0 1 402.015057 890.95307 64.577824 64.577824 0 0 1 378.836087 895.999927H60.394053a58.031539 58.031539 0 0 1-42.26194-18.139427A63.941481 63.941481 0 0 1 0 835.613188V483.108528h1208.575914V684.543942a57.70971 57.70971 0 0 1-18.139428 42.26194zM1148.415918-120.751543H60.394053A60.635424 60.635424 0 0 0 0-60.357491v644.534812h1208.575914v-644.534812a60.635424 60.635424 0 0 0-60.394053-60.394052h0.234057z"  horiz-adv-x="1214" />

    
    <glyph glyph-name="xiazai-1" unicode="&#59316;" d="M137.90246 895.99959a48.573421 48.573421 0 0 1-35.589106-15.293433A53.964778 53.964778 0 0 1 87.0404 845.065851V-72.345622a48.706541 48.706541 0 0 1 15.272954-35.640306 49.97118 49.97118 0 0 1 35.589106-15.293434h746.336982a48.639981 48.639981 0 0 1 35.589105 15.293434 50.37054 50.37054 0 0 1 15.272954 35.640306V607.282906L646.727857 895.99959H137.90246zM935.101501 607.282906h-237.445025c-27.822069 0.6656-50.22718 23.075831-50.928619 50.93374V895.99959l288.373644-288.716684zM499.184876 203.007868a19.046392 19.046392 0 0 1 11.888635-5.058558 16.855033 16.855033 0 0 1 11.878395 5.053438l150.93242 144.358342a7.920637 7.920637 0 0 1 1.725439 9.374716 8.232957 8.232957 0 0 1-7.633917 5.119998H578.933964V506.147586a17.341433 17.341433 0 0 1-16.998394 16.957434H460.206331a17.341433 17.341433 0 0 1-16.998393-16.957434v-144.291782h-89.036764a7.439357 7.439357 0 0 1-7.639037-5.119998 9.251836 9.251836 0 0 1 1.725439-9.369596l150.9273-144.363462z m223.89751-70.487012H299.059516a16.993273 16.993273 0 0 1-15.600634-8.171517 17.044473 17.044473 0 0 1 0-17.633273 16.993273 16.993273 0 0 1 15.600634-8.171517h424.03311a17.013753 17.013753 0 0 1 15.933434 16.988154 17.013753 17.013753 0 0 1-15.933434 16.988153z"  horiz-adv-x="1024" />

    
    <glyph glyph-name="excel-1" unicode="&#59317;" d="M116.91008 896h552.05888l262.77376-257.70496V-99.4304c0-15.7696-13.19936-28.5696-29.46048-28.5696H116.91008c-16.26112 0-29.45536 12.8-29.45536 28.5696V867.4304C87.4496 883.2 100.64896 896 116.91008 896zM668.96896 896v-229.13536c0-15.79008 13.19936-28.5696 29.46048-28.5696h233.31328L668.96896 896zM703.744 525.39904l-447.5392-435.2a39.14752 39.14752 0 0 1 0.74752-55.90528c15.85664-15.34464 41.4464-15.60576 57.63584-0.5888l447.51872 435.2c10.81856 10.0352 15.1808 24.96512 11.40224 39.0144-3.77344 14.04416-15.104 25.00096-29.5936 28.63104-14.4896 3.63008-29.8752-0.64-40.192-11.15136h0.01536zM256.2048 470.03136l447.5392-435.17952c16.18944-15.01696 41.7792-14.75584 57.63584 0.5888a39.14752 39.14752 0 0 1 0.74752 55.90016l-447.51872 435.2c-16.18944 15.01696-41.7792 14.75584-57.64096-0.5888a39.14752 39.14752 0 0 1-0.74752-55.90016l-0.01536-0.02048z"  horiz-adv-x="1024" />

    
    <glyph glyph-name="jpg-1" unicode="&#59318;" d="M137.90246 895.99959a48.573421 48.573421 0 0 1-35.589106-15.293433A53.964778 53.964778 0 0 1 87.0404 845.065851V-72.345622a48.706541 48.706541 0 0 1 15.272954-35.640306 49.97118 49.97118 0 0 1 35.589106-15.293434h746.336982a48.639981 48.639981 0 0 1 35.589105 15.293434 50.37054 50.37054 0 0 1 15.272954 35.640306V607.282906L646.727857 895.99959H137.90246zM935.101501 607.282906h-237.445025c-27.822069 0.6656-50.22718 23.075831-50.928619 50.93374V895.99959l288.373644-288.716684zM772.290686 180.930436l-106.239957 164.766655a16.593913 16.593913 0 0 1-14.412794 7.649276 18.851832 18.851832 0 0 1-14.407675-7.649276l-56.837097-88.299485-127.221709 206.131117a16.527353 16.527353 0 0 1-14.407674 7.644157 18.851832 18.851832 0 0 1-14.412795-7.649277L249.656655 180.735877a15.447034 15.447034 0 0 1 0-16.957434 15.667194 15.667194 0 0 1 14.407675-8.509436h493.547322a18.851832 18.851832 0 0 1 15.272954 8.509436 16.977913 16.977913 0 0 1-0.7936 16.957434l0.19968 0.199679zM628.070584 492.850952a42.490863 42.490863 0 0 1 26.14271-39.306225 42.388463 42.388463 0 0 1 46.264301 9.169917 42.531823 42.531823 0 0 1 9.226236 46.310381 42.429423 42.429423 0 0 1-39.203824 26.24511c-23.408631 0-42.393583-18.979832-42.434543-42.419183z"  horiz-adv-x="1024" />

    
    <glyph glyph-name="txt-1" unicode="&#59319;" d="M137.90246 895.99959a48.573421 48.573421 0 0 1-35.589106-15.293433A53.964778 53.964778 0 0 1 87.0404 845.065851V-72.345622a48.706541 48.706541 0 0 1 15.272954-35.640306 49.97118 49.97118 0 0 1 35.589106-15.293434h746.336982a48.639981 48.639981 0 0 1 35.589105 15.293434 50.37054 50.37054 0 0 1 15.272954 35.640306V607.282906L646.727857 895.99959H137.90246zM935.101501 607.282906h-237.445025c-27.822069 0.6656-50.22718 23.075831-50.928619 50.93374V895.99959l288.373644-288.716684zM248.125776 530.815736h220.518312a25.51807 25.51807 0 0 1 24.19199 25.49759 25.51807 25.51807 0 0 1-24.19711 25.50271H248.125776a25.51807 25.51807 0 0 1-24.19711-25.49759 25.51807 25.51807 0 0 1 24.19711-25.49759z m0-169.825212h525.82379a25.44639 25.44639 0 0 1 25.431029 25.46687 25.44639 25.44639 0 0 1-25.431029 25.46687h-525.82379a25.44639 25.44639 0 0 1-25.43103-25.46687 25.44639 25.44639 0 0 1 25.43103-25.46687z m525.82379-118.886352h-525.82379a25.51807 25.51807 0 0 1-24.19711-25.49759 25.51807 25.51807 0 0 1 24.19711-25.50271h525.82379a25.51807 25.51807 0 0 1 24.19711 25.49759 25.51807 25.51807 0 0 1-24.19711 25.49759z"  horiz-adv-x="1024" />

    
    <glyph glyph-name="word-1" unicode="&#59320;" d="M116.91008 896h552.05888l262.77376-257.70496V-99.4304c0-15.7696-13.19936-28.5696-29.46048-28.5696H116.91008c-16.26112 0-29.45536 12.8-29.45536 28.5696V867.4304C87.4496 883.2 100.64896 896 116.91008 896zM668.96896 896v-229.13536c0-15.79008 13.19936-28.5696 29.46048-28.5696h233.31328L668.96896 896zM722.7648 72.46336c25.3952-26.96192 71.7056-9.55392 71.7056 26.96704V524.55936h-82.51392v-321.97632l-163.96288 174.1824c-7.81312 8.29952-18.87232 13.0304-30.464 13.0304-11.58656 0-22.64064-4.73088-30.45888-13.0304l-163.96288-174.1824v321.9968H240.62976v-425.14944c0-36.52096 46.31552-53.92896 71.71072-26.96704l205.2096 217.99424 205.2096-217.99424z"  horiz-adv-x="1024" />

    
    <glyph glyph-name="shangchuan-1" unicode="&#59321;" d="M137.90231 896C110.10583 895.29856 87.74167 872.89856 87.04023 845.06624V-72.3456a48.70656 48.70656 0 0 1 15.27296-35.6352 49.9712 49.9712 0 0 1 35.58912-15.29856h746.33728a48.64 48.64 0 0 1 35.58912 15.29344 50.37056 50.37056 0 0 1 15.27296 35.64032V607.2832L646.72791 896H137.90231zM935.10167 607.2832h-237.44512c-27.82208 0.6656-50.2272 23.07584-50.92864 50.93376V896l288.37376-288.7168zM354.16599 353.21344h89.04192v-144.3584a17.47456 17.47456 0 0 1 16.9984-17.01888h101.72928a17.47456 17.47456 0 0 1 16.9984 17.01888v144.3584h89.0368a7.3728 7.3728 0 0 1 7.63904 5.12c1.1776 3.18464 0.512 6.7584-1.72544 9.30816L522.95703 512.13312a19.10784 19.10784 0 0 1-11.88352 5.12 15.39584 15.39584 0 0 1-11.88864-5.12L348.26263 367.77472a7.58784 7.58784 0 0 1-1.72544-9.30816c1.23904-3.1232 4.2752-5.16608 7.63392-5.12v-0.13312z m368.9216-220.8256H299.05431a16.99328 16.99328 0 0 1-15.60064-8.17152 17.04448 17.04448 0 0 1 0-17.63328 16.99328 16.99328 0 0 1 15.60064-8.17152h424.03328a17.01376 17.01376 0 0 1 15.93344 16.98816 17.01376 17.01376 0 0 1-15.93344 16.98816z"  horiz-adv-x="1024" />

    
    <glyph glyph-name="mp3-1" unicode="&#59322;" d="M137.90246 895.99959a48.573421 48.573421 0 0 1-35.589106-15.293433A53.964778 53.964778 0 0 1 87.0404 845.065851V-72.345622a48.706541 48.706541 0 0 1 15.272954-35.640306 49.97118 49.97118 0 0 1 35.589106-15.293434h746.336982a48.639981 48.639981 0 0 1 35.589105 15.293434 50.37054 50.37054 0 0 1 15.272954 35.640306V607.282906L646.727857 895.99959H137.90246zM935.101501 607.282906h-237.445025c-27.822069 0.6656-50.22718 23.075831-50.928619 50.93374V895.99959l288.373644-288.716684zM678.133924 408.534825c0.41984 2.201599 0.41984 4.454398 0 6.650878V537.466614a18.099193 18.099193 0 0 1-5.908478 12.764155 15.923194 15.923194 0 0 1-13.614074 3.394558L393.011478 478.883597a15.421434 15.421434 0 0 1-12.682235-15.293434v-292.106123a90.393564 90.393564 0 0 1-34.795506 6.655998c-9.420796 0.11264-18.826232-1.024-27.955189-3.394559-43.289583-11.903995-70.379492-45.880302-61.951975-77.332449 6.645757-24.60159 32.276467-39.895024 64.476134-39.895024 9.420796 0.3072 18.800632 1.443839 28.021749 3.389438 38.978544 11.038716 64.409574 39.096304 63.544295 67.092454 0.77312 1.894399 1.0752 3.947518 0.865279 5.985277v190.238644l233.267107 65.361894v-144.358342a90.654684 90.654684 0 0 1-34.795506 6.650877 106.096598 106.096598 0 0 1-28.021749-3.394559c-43.228143-11.898875-70.384612-45.875182-61.885415-77.260769 6.640637-24.67327 32.204787-39.900144 64.471014-39.900144 9.431036-0.11776 18.831352 1.024 27.955189 3.394559 38.179825 10.239996 63.610855 38.231025 63.610854 66.493413 0.77312 1.868799 1.0752 3.901438 0.86528 5.913598l0.13312 201.410479z m-265.599894-50.933739V414.453543l233.395107 65.095654v-56.919017l-233.395107-65.023974z"  horiz-adv-x="1024" />

    
    <glyph glyph-name="mp4-1" unicode="&#59323;" d="M137.90246 895.99959a48.573421 48.573421 0 0 1-35.589106-15.293433A53.964778 53.964778 0 0 1 87.0404 845.065851V-72.345622a48.706541 48.706541 0 0 1 15.272954-35.640306 49.97118 49.97118 0 0 1 35.589106-15.293434h746.336982a48.639981 48.639981 0 0 1 35.589105 15.293434 50.37054 50.37054 0 0 1 15.272954 35.640306V607.282906L646.727857 895.99959H137.90246zM138.24038 812.548744a42.490863 42.490863 0 1 1 84.976606 0 42.490863 42.490863 0 0 1-84.976606 0zM138.24038 642.723532a42.490863 42.490863 0 1 1 84.976606 0 42.490863 42.490863 0 0 1-84.976606 0zM138.24038 472.90344a42.490863 42.490863 0 1 1 84.976606-0.13312A42.490863 42.490863 0 0 1 138.24038 472.90344zM138.24038 303.011668a42.490863 42.490863 0 1 1 42.490863 42.490863 42.424303 42.424303 0 0 1-42.490863-42.495983zM138.24038 133.186456a42.490863 42.490863 0 1 1 84.976606-0.13312A42.490863 42.490863 0 0 1 138.24038 133.186456zM138.24038-36.705317a42.490863 42.490863 0 1 1 84.976606 0 42.490863 42.490863 0 0 1-84.976606 0zM796.928116 472.90344a42.490863 42.490863 0 1 1 84.976606-0.13312 42.490863 42.490863 0 0 1-84.981726 0.13312zM796.928116 303.011668a42.490863 42.490863 0 1 1 42.485743 42.490863 42.424303 42.424303 0 0 1-42.490863-42.495983zM796.928116 133.186456a42.490863 42.490863 0 1 1 84.976606-0.13312 42.490863 42.490863 0 0 1-84.981726 0.13312zM796.928116-36.705317a42.490863 42.490863 0 1 1 84.976606 0 42.490863 42.490863 0 0 1-84.981726 0zM631.091383 390.246193L406.011153 544.844531a16.691193 16.691193 0 0 1-17.817593 0.79872A17.817593 17.817593 0 0 1 378.880284 530.416377v-308.331397a18.022393 18.022393 0 0 1 9.308156-15.293434 16.824313 16.824313 0 0 1 17.817593 0.86528l225.08535 155.391938a15.359994 15.359994 0 0 1 7.644157 13.634554 18.687993 18.687993 0 0 1-7.644157 13.296635v0.26624zM935.101501 607.282906h-237.445025c-27.822069 0.6656-50.22718 23.075831-50.928619 50.93374V895.99959l288.373644-288.716684z"  horiz-adv-x="1024" />

    
    <glyph glyph-name="zip-1" unicode="&#59324;" d="M1079.048591-126.302497H56.746094c-31.187329 0-56.746094 21.778899-56.746094 48.224215V214.462711h1135.574765v-292.389798c0-26.452188-25.565638-48.231087-56.746094-48.231087l0.21992-0.144323zM56.746094 896H1079.048591c31.187329 0 56.746094-21.785772 56.746094-48.224215v-292.540993H0.219919V847.617718C0.219919 874.076779 25.785557 895.848805 56.972886 895.848805L56.746094 896zM0.219919 555.159195h1135.423571v-340.620886H0.219919zM378.694443 895.780081h378.474523v-1021.862658H378.694443zM487.444617 839.027114h75.714148v-56.814819H487.444617V839.033987zM563.158765 895.786953H638.86604V839.027114H563.158765V895.780081z m0-113.567785H638.86604v-56.5949H563.158765v56.5949z m-75.714148-56.5949h75.714148v-56.746094H487.444617v56.746094z m75.714148-56.746094H638.86604v-56.821691H563.158765v56.821691z m-75.714148-56.821691h75.714148v-56.814819H487.444617v56.814819z m75.714148-56.746094H638.86604v-56.746094H563.158765v56.746094zM487.444617 498.564295h75.714148v-56.814818H487.444617v56.814818z m75.714148-56.814818H638.86604v-56.897289H563.158765v56.897289z m-75.714148-56.897289h75.714148v-56.746094H487.444617v56.746094z m75.714148-56.746094H638.86604V271.291275H563.158765v56.814819zM487.444617 271.291275h75.714148v-56.821691H487.444617V271.291275z m75.714148-56.746094H638.86604v-56.746094H563.158765v56.746094z m-75.714148-56.746094h75.714148v-56.821691H487.444617v56.821691z m75.714148-56.821691H638.86604v-56.890416H563.158765v56.890416z m-75.714148-56.890416h75.714148v-56.746094H487.444617v56.746094z m0-113.567785h75.714148v-56.814819H487.444617v56.814819z m75.714148 56.821691H638.86604v-56.821691H563.158765v56.821691z"  horiz-adv-x="1140" />

    
    <glyph glyph-name="png-1" unicode="&#59325;" d="M137.90231 896C110.10583 895.29856 87.74167 872.89856 87.04023 845.06624V-72.3456a48.70656 48.70656 0 0 1 15.27296-35.6352 49.9712 49.9712 0 0 1 35.58912-15.29856h746.33728a48.64 48.64 0 0 1 35.58912 15.29344 50.37056 50.37056 0 0 1 15.27296 35.64032V607.2832L646.72791 896H137.90231zM935.10167 607.2832h-237.44512c-27.82208 0.6656-50.2272 23.07584-50.92864 50.93376V896l288.37376-288.7168zM299.05943 505.34912h84.7872v-84.91008H299.05943V505.344z m169.57952 0h84.79744v-84.91008H468.63383V505.344z m169.65632 0h84.7872v-84.91008h-84.7872V505.344zM383.84663 420.43904h84.79232v-84.9152h-84.7872V420.43904z m169.58976 0h84.85888v-84.9152H553.43639V420.43904zM383.84663 250.61376h84.79232v-84.97664h-84.7872v84.97664z m169.58976 0h84.85888v-84.97664H553.43639v84.97664z m-254.38208 84.91008H383.84663v-84.91008H299.05943v84.91008z m169.58464 0h84.79744v-84.91008H468.63383v84.91008z m169.65632 0h84.7872v-84.91008h-84.7872v84.91008z m-339.24096-169.88672H383.84663v-85.0432H299.05943v85.0432z m169.58464 0h84.79744v-85.0432H468.63383v85.0432z m169.65632 0h84.7872v-85.0432h-84.7872v85.0432z"  horiz-adv-x="1024" />

    
    <glyph glyph-name="pdf-1" unicode="&#59326;" d="M116.91008 896h552.05888l262.77376-257.70496V-99.4304c0-15.7696-13.19936-28.5696-29.46048-28.5696H116.91008c-16.26112 0-29.45536 12.8-29.45536 28.5696V867.4304C87.4496 883.2 100.64896 896 116.91008 896zM668.96896 896v-229.13536c0-15.79008 13.19936-28.5696 29.46048-28.5696h233.31328L668.96896 896zM721.3056 41.12896c-52.31616 0-99.24608 87.0912-123.91936 143.70304-41.5232 16.80896-87.31648 32.512-131.77856 42.66496-38.912-24.89856-105.12384-62.17216-155.9808-62.17216-31.54944 0-54.26688 15.39584-62.60736 42.1888-6.38976 22.05184-0.98816 37.2736 5.87776 45.5168 13.40928 17.7664 41.0368 26.79296 82.4064 26.79296 33.52064 0 76.01664-5.69856 123.4432-16.7936a785.0496 785.0496 0 0 1 89.26208 71.3728c-12.2624 56.45824-25.67168 147.968 8.3456 190.1568 16.83456 20.14208 42.496 26.79808 73.5488 17.7664 34.01728-9.5232 46.93504-29.66016 50.85696-45.5168 14.39232-55.04-50.85696-129.25952-94.82752-172.88192 9.81504-37.7344 22.7328-77.55264 38.43072-114.0224 63.09888-27.2896 138.1376-68.0448 146.65216-112.47104 3.4304-15.36-1.4848-29.6448-14.39744-42.17344-11.12064-8.87296-22.87616-14.11072-35.31776-14.11072v-0.02048z m-47.03744 96.02048c11.50464-24.85248 22.48704-36.57728 28.27776-36.57728 0.88064 0 2.14528 0.37888 3.92192 1.8944 2.1504 2.28864 2.1504 3.80928 1.792 5.20704-1.19296 6.51776-10.9056 17.23904-33.9968 29.47584zM342.07744 237.7216c-18.4064 0-23.4752-4.31616-25.00608-6.33344-0.44032-0.64512-1.76128-2.59072-0.44032-7.60832 1.09056-4.32128 4.1728-8.92928 13.70624-8.92928 11.95008 0 29.24544 6.5536 49.34144 18.26304-14.37696 3.08736-27.04384 4.608-37.60128 4.608z m180.18816 22.18496c10.99776-2.9696 22.4-6.8096 32.99328-10.752a280.9344 280.9344 0 0 0-9.58976 29.696 722.85696 722.85696 0 0 0-23.3984-18.944z m77.7216 214.3744a11.71456 11.71456 0 0 1-9.1136-4.00896c-7.28064-8.89344-8.0896-31.29856-2.4576-59.99104 21.3248 22.20544 32.9216 42.5984 30.03392 53.504-0.40448 1.60768-1.6384 6.48704-11.5968 9.30304a24.01792 24.01792 0 0 1-6.8608 1.19296z"  horiz-adv-x="1024" />

    
    <glyph glyph-name="ppt-1" unicode="&#59327;" d="M116.91008 896h552.05888l262.77376-257.70496V-99.4304c0-15.7696-13.19936-28.5696-29.46048-28.5696H116.91008c-16.26112 0-29.45536 12.8-29.45536 28.5696V867.4304C87.4496 883.2 100.64896 896 116.91008 896zM668.96896 896v-229.13536c0-15.79008 13.19936-28.5696 29.46048-28.5696h233.31328L668.96896 896zM695.59296 422.74304c9.18528-9.09824 14.0288-22.19008 14.0288-41.59488 0-19.42016-4.84352-32.512-14.0288-41.60512-9.79968-9.728-26.3936-16.9472-50.90816-20.6848h-363.9808c-22.784 0-41.25184-17.90976-41.25184-40.00768v-179.42016c0-14.29504 7.8592-27.50464 20.62336-34.65216a42.35776 42.35776 0 0 1 41.24672 0c12.76416 7.14752 20.62848 20.35712 20.62336 34.65216v139.43296h325.82144c1.93536 0 3.8912 0.12288 5.82144 0.39424 88.11008 12.20096 138.5216 62.22336 138.5216 141.89056 0 79.65184-50.41152 129.67424-138.5216 141.8752a42.04544 42.04544 0 0 1-5.82144 0.4096H280.69888c-22.784 0-41.24672-17.90976-41.24672-40.00256 0-22.0928 18.46784-40.00256 41.24672-40.00256h363.98592c24.51456-3.7376 41.10848-10.9568 50.90816-20.66944v-0.01536z"  horiz-adv-x="1024" />

    
    <glyph glyph-name="4" unicode="&#58938;" d="M922.7 231.4c0-167.2-184.4-263.7-412-263.7s-412 96.5-412 263.7 184.4 350.3 412 350.3 412-183 412-350.3zM531.8 580.7c187.6-37.4 328.6-195.8 328.6-342 0-167.2-184.4-263.7-412-263.7-19.5 0-38.4 1-57.2 2.4 37.8-6.3 77.9-9.6 119.5-9.6 227.5 0 412 96.5 412 263.7 0 161.9-173.3 338.3-390.9 349.2zM607.4 697.4c0-58.9-42.9-197.7-95.8-197.7s-95.8 138.8-95.8 197.7 42.9 100.4 95.8 100.4 95.8-41.6 95.8-100.4zM437.4 710.4c41.6-41.6 109.5-170.1 72.1-207.5S343.6 533.4 302 575s-40.7 101.3-3.3 138.7 97.1 38.3 138.7-3.3zM586 710.4c-41.6-41.6-109.5-170.1-72.1-207.5s165.9 30.5 207.5 72.1 40.7 101.3 3.3 138.7c-37.5 37.4-97.1 38.3-138.7-3.3zM419.6 724.8c-39.6 26.2-88.6 21.3-121-11.1v-1.4c28.1 28.6 84.9 19.2 124.9-24.6 15.6-17.1 36.1-70.8 47.5-103.8-9.8 25.1-28.4 102.6-28.4 111.8 0 59.8 30.9 102.1 69 102.1-44.1 0-80.9-29.2-92-73zM724.6 713.7c-32.4 32.4-81.4 37.3-121 11.1-11.1 43.8-47.9 73-92 73 38.1 0 69-42.2 69-102.1 0-10-1.4-54-21.1-109 19.7 55 31.2 83.5 46 101.7 36.4 44.8 91.7 51.8 119.1 23.9v1.4zM684 566.1h27.6c3.6 3.1 7 6 9.8 8.9 41.6 41.6 40.7 101.3 3.3 138.7-3.5 3.5-7.3 6.5-11.1 9.4 35.5-37.5 35.9-95.7-5-136.6-6.4-6.4-14.9-13.3-24.6-20.4zM743.2 511.3H278.3c-0.8 0-1.5 0.7-1.5 1.5v61.5c0 0.8 0.7 1.5 1.5 1.5h464.9c0.8 0 1.5-0.7 1.5-1.5v-61.5c0-0.8-0.7-1.5-1.5-1.5zM309.1 511.3h403.4c17.7 0 32.2 14.5 32.2 32.2H276.8c0-17.7 14.5-32.2 32.3-32.2zM623.6 273.1c-15.3 0.2-30.6 0.3-45.8 0.4-67.5 0.3-123.7-55.2-121.4-122.1 3.4-66.8 55.6-126.2 112.7-121.4 13.3 1.1 26.6 2.5 39.9 4.3 57 9.2 121.6 72.3 131.3 129.6 8.8 57.5-49.3 107.2-116.7 109.2z m-50.9-198.8h-0.5c-32.1-2.1-59 21.8-68.7 54.1 24.1-0.1 48.1 0.3 72.2 1.3-0.8-18.5-1.8-37-3-55.4z m5.6 153.6c-0.2-18-0.5-36-1-54-24.6-0.6-49.3-0.9-73.9-0.8 9.4 32.2 39.1 55.9 74.4 56.2h0.8c0-0.5-0.3-0.9-0.3-1.4z m36-150.2c-0.2 0-0.4 0-0.5-0.1 1.9 18.1 3.6 36.2 4.9 54.3 24.1 1.6 48.1 3.8 72.2 6.5-13.5-30.4-44.6-57.2-76.6-60.7z m7 97.7c0.8 17.7 1.4 35.3 1.7 53 0 0.4-0.2 0.8-0.2 1.3h0.9c35.2 0.3 64.7-21.4 71.7-50.1-24.8-1.8-49.5-3.2-74.1-4.2z m13.9 243.5c-23.7 2.7-47.4 4.6-71.1 5.8-33.3 1.7-61.1-28.4-61.5-64.8-0.3-36.4 29.2-66 65.6-66.4 25.5-0.3 51-0.7 76.5-1.3 36.3-0.5 65 25.4 61 58-4.3 32.7-37.2 64.5-70.5 68.7z m7.6-83.8c-25.1 1.3-50.3 2.3-75.4 2.8-11.6 0.3-21.1 9.9-21.3 21.7-0.2 11.7 8.8 21.1 20 20.7 24.6-0.9 49.1-2.3 73.7-4.3 11.3-0.9 21.4-10.9 22.4-21.9 1-11.1-7.8-19.6-19.4-19zM477.4 436.3c77.2 2.6 154.4-3.8 231.7-19 11.4-2.2 18.4 4.5 15.3 15.2-3.1 10.7-14.6 21.9-25.3 24.7-73.3 18.9-146.6 26.8-219.9 23.6-10.7-0.5-20.1-11.1-20.9-23.3-0.9-12.1 7.7-21.5 19.1-21.2z m-27.2-41.6c-5.4 11.6-16.4 18.3-29 17.3-35.1-2.6-70.2-6.9-105.3-12.6-11.5-2-22.8-12.4-24.8-23.2-2-10.8 6.3-18.4 18.3-17 31.1 3.6 62.1 6.3 93.2 8.2-43.5-60.1-88.2-117.8-124.3-167-6.2-8.4-2.3-20.6 8.5-27.8 4.1-2.7 8.5-4.3 12.8-4.7 6.9-0.7 13.4 1.7 17.1 7.1 37.6 54.6 85 118.1 130 182.7 7.6 11.1 8.9 25.4 3.5 37z m3-153.1c-8.9 8-39.8 32.1-67.8 19.8-17.7-7.8-26.9-25.7-25.8-53.6 1.9-46.5 6.5-92.9 14-139.4 1.9-11.7 12.4-22.7 23.2-24.3 10.8-1.6 18.4 7.1 17.1 19.1-5.2 47.8-8.5 95.6-9.9 143.3-0.2 7.3 0.5 11.6 1.1 14.1 4.9-1.7 13-6.7 18.8-11.7 9.3-8.2 23.3-7.7 31.3 1.4 8.1 9.1 7.2 23.1-2 31.3zM368 426.8c15.9 2.3 31.8 4.1 47.7 5.6 11.4 1.1 21.3 11.5 22.3 23.8 1 12.2-6.8 21.2-17.5 19.9-15.1-1.9-30.2-4.2-45.3-7-10.7-2-21.5-13.2-23.8-24.6-2.3-11.5 5.3-19.3 16.6-17.7z"  horiz-adv-x="1024" />

    
    <glyph glyph-name="2" unicode="&#58939;" d="M959.3 344h-896l41.1 46.4h813.9zM959.3 344h-896l41.1-46.4h813.9zM918.3 436.8H104.4l41 46.4h731.8zM918.3 436.8H104.4l41-46.4h731.8zM856.7 529.6H166l41 46.4h608.6zM856.7 529.6H166l41-46.4h608.6zM104.4 251.2h813.9l-41.1-46.4H145.4zM104.4 251.2h813.9l-41.1 46.4H145.4zM166 158.4h690.7L815.6 112H207zM166 158.4h690.7l-41.1 46.4H207zM268.6 65.6H754l-41-46.4H309.7zM268.6 65.6H754L713 112H309.7zM309.7 19.2h402.1v-51.8H309.7zM492.4 797.8H528v-96.3h-35.6zM669.1 608.5H627c0 39-53.3 71.9-116.3 71.9s-116.3-32.9-116.3-71.9h-42.1c0 63.9 69.6 114 158.4 114s158.4-50.1 158.4-114zM394.4 608.5c0 39 53.3 71.9 116.3 71.9S627 647.5 627 608.5h15.8c-14.3 50.2-67.1 86.6-132.1 86.6s-117.7-36.4-132-86.6h15.7zM207 627.8h607.4V576H207z"  horiz-adv-x="1024" />

    
    <glyph glyph-name="3" unicode="&#58940;" d="M911.6 420.6L549.7 782.5c-20.8 20.8-54.6 20.8-75.4 0L112.4 420.6c-20.8-20.8-20.8-54.6 0-75.4l361.9-361.9c20.8-20.8 54.6-20.8 75.4 0l361.9 361.9c20.8 20.8 20.8 54.6 0 75.4zM911.6 420.6L549.7 782.5c-10.4 10.4-24 15.6-37.7 15.6v-830.4c13.6 0 27.3 5.2 37.7 15.6l361.9 361.9c20.8 20.8 20.8 54.6 0 75.4zM858.1 415.5L544.6 728.9c-18 18-47.2 18-65.3 0L165.9 415.5c-18-18-18-47.2 0-65.3l313.4-313.4c18-18 47.2-18 65.3 0L858 350.2c18.1 18.1 18.1 47.3 0.1 65.3zM541.9 65.9L565 89H459l23.1-23.1-264 264v106L459 676.7h106l240.8-240.8v-106.1L541.9 65.9zM384.4 509.6h38.2c8.8 0 15.9 7.1 15.9 15.9s-7.1 15.9-15.9 15.9h-38.2c-8.8 0-15.9-7.1-15.9-15.9s7.1-15.9 15.9-15.9zM451.4 478.9c-4.5 8.6-13.4 13.9-23.1 13.9h-82.7c-8.8 0-15.9-7.1-15.9-15.9s7.1-15.9 15.9-15.9h71.7l-90.6-131.4c-5-7.2-3.2-17.1 4.1-22.1 2.7-1.9 5.9-2.8 9-2.8 5 0 10 2.4 13.1 6.9L449.8 452c5.5 8 6.1 18.3 1.6 26.9zM456.1 365.4c-4.6 4.1-28.5 24-49.2 14.7-12.8-5.7-19.3-19.5-19.3-40.9v-108c0-8.8 7.1-15.9 15.9-15.9s15.9 7.1 15.9 15.9v108c0 6.8 0.9 10.3 0.7 11.5 3.5-0.9 10.2-4.8 14.9-8.9 6.5-5.7 16.6-5.2 22.4 1.4 5.8 6.4 5.2 16.4-1.3 22.2zM472 509.6h185.5c8.8 0 15.9 7.1 15.9 15.9s-7.1 15.9-15.9 15.9H472c-8.8 0-15.9-7.1-15.9-15.9s7.1-15.9 15.9-15.9zM540.9 500.6c-26.4 0-48-21.5-48-48 0-26.4 21.5-48 48-48h56.3c26.4 0 48 21.5 48 48 0 26.4-21.5 48-48 48h-56.3z m72.5-48c0-8.9-7.3-16.1-16.1-16.1H541c-8.9 0-16.1 7.2-16.1 16.1 0 8.9 7.3 16.1 16.1 16.1h56.3c8.9 0.1 16.1-7.2 16.1-16.1zM581.6 388.9h-33.7c-49.5 0-89.7-40.3-89.7-89.7 0-49.5 40.3-89.7 89.7-89.7h33.7c49.5 0 89.7 40.3 89.7 89.7 0 49.4-40.3 89.7-89.7 89.7z m55.4-73.8h-56.4v40.6c0 0.5-0.2 1-0.3 1.5h1.2c26.4-0.1 48.5-18 55.5-42.1z m-89.1 42h1.2c0-0.5-0.3-0.9-0.3-1.5V315h-56.3c6.9 24.2 29 42.1 55.4 42.1z m-55.4-73.8h56.3v-42h-0.9c-26.4-0.1-48.5 17.8-55.4 42z m89.1-42.1h-0.9v42H637c-7-24.1-29.1-42-55.4-42zM858.1 415.5L544.6 728.9c-9 9-20.8 13.5-32.6 13.5v-65.7h53l240.8-240.8v-106.1l-264-264L565 89h-53v-65.7c11.8 0 23.6 4.5 32.6 13.5L858 350.2c18.1 18.1 18.1 47.3 0.1 65.3zM512 509.6h145.5c8.8 0 15.9 7.1 15.9 15.9s-7.1 15.9-15.9 15.9H512v-31.8zM581.6 388.9h-33.7c-12.8 0-24.9-2.8-35.9-7.6v-37c9.8 7.9 22.3 12.8 35.9 12.8h1.2c0-0.5-0.3-0.9-0.3-1.5V315H512v-31.8h36.8v-42h-0.9c-13.6 0-26.1 4.8-35.9 12.8v-37c11-4.8 23.1-7.6 35.9-7.6h33.7c49.5 0 89.7 40.3 89.7 89.7 0 49.5-40.3 89.8-89.7 89.8z m0-147.7h-0.9v42H637c-7-24.1-29.1-42-55.4-42z m-1 73.9v40.6c0 0.5-0.2 1-0.3 1.5h1.2c26.4 0 48.5-17.9 55.4-42h-56.3zM597.3 404.7c26.4 0 48 21.5 48 48 0 26.4-21.5 48-48 48H541c-10.9 0-20.9-3.8-28.9-10v-76c8.1-6.2 18-10 28.9-10h56.3z m-72.5 47.9c0 8.9 7.3 16.1 16.1 16.1h56.3c8.9 0 16.1-7.2 16.1-16.1 0-8.9-7.3-16.1-16.1-16.1h-56.3c-8.9 0-16.1 7.2-16.1 16.1z"  horiz-adv-x="1024" />

    
    <glyph glyph-name="5" unicode="&#58941;" d="M869.3 656.2H150.1c-15.1 0-27.4-12.3-27.4-27.4v-507.9c0-15.1 12.3-27.4 27.4-27.4h719.2c15.1 0 27.4 12.3 27.4 27.4V628.8c0 15-12.4 27.4-27.4 27.4zM146.9 610.7h725.5V139H146.9zM122.7 656.2h79.1v-562.7h-79.1zM837.3 656.2h49.6v-562.7h-49.6zM116.1 727.7c-14.8 0-26.8-12.1-26.8-26.8v-76.1c0-14.8 12.1-26.8 26.8-26.8 14.8 0 26.8 12.1 26.8 26.8v76.1c0 14.7-12 26.8-26.8 26.8zM141.8 164.9H90.4c-0.6 0-1.2-0.5-1.2-1.2v-127.4c0-0.6 0.5-1.2 1.2-1.2h51.3c0.6 0 1.2 0.5 1.2 1.2V163.8c0 0.6-0.5 1.1-1.1 1.1zM140.4 674.8H91.8c-15.1 0-27.4-12.3-27.4-27.4v-545.2c0-15.1 12.3-27.4 27.4-27.4h48.6c15.1 0 27.4 12.3 27.4 27.4V647.4c0 15.1-12.3 27.4-27.4 27.4zM143.6 674.8h-0.6v28.6c0 13.3-10.9 24.2-24.2 24.2h-2.6v-692.5h2.6c13.3 0 24.2 10.9 24.2 24.2v15.4h0.6c13.3 0 24.2 10.9 24.2 24.2V650.6c0 13.3-10.9 24.2-24.2 24.2zM907.6 727.7c-14.8 0-26.8-12.1-26.8-26.8v-76.1c0-14.8 12.1-26.8 26.8-26.8 14.8 0 26.8 12.1 26.8 26.8v76.1c0.1 14.7-12 26.8-26.8 26.8zM907.6 164.9c-14.8 0-26.8-12.1-26.8-26.8V62c0-14.8 12.1-26.8 26.8-26.8 14.8 0 26.8 12.1 26.8 26.8v76.1c0.1 14.8-12 26.8-26.8 26.8zM931.9 674.8h-48.6c-15.1 0-27.4-12.3-27.4-27.4v-545.2c0-15.1 12.3-27.4 27.4-27.4h48.6c15.1 0 27.4 12.3 27.4 27.4V647.4c0 15.1-12.3 27.4-27.4 27.4zM935.1 674.8h-0.6v28.6c0 13.3-10.9 24.2-24.2 24.2h-2.6v-692.5h2.6c13.3 0 24.2 10.9 24.2 24.2v15.4h0.6c13.3 0 24.2 10.9 24.2 24.2V650.6c0 13.3-10.9 24.2-24.2 24.2zM368.3 533.2h43.3c10.3 0 18.6 8.3 18.6 18.6s-8.3 18.6-18.6 18.6h-43.3c-10.3 0-18.6-8.3-18.6-18.6s8.3-18.6 18.6-18.6zM444.9 499.1c-5.2 10-15.4 16.1-26.7 16.1h-93.8c-10.3 0-18.6-8.3-18.6-18.6s8.3-18.6 18.6-18.6h80.3L302.4 329.7c-5.8-8.5-3.7-20.1 4.8-25.9 3.2-2.2 6.9-3.3 10.5-3.3 5.9 0 11.7 2.8 15.3 8L443 468c6.4 9.3 7.1 21.2 1.9 31.1zM450.1 370.5c-7.4 6.6-33.2 27.2-56.5 16.8-14.8-6.6-22.3-22.4-22.3-47v-122.6c0-10.3 8.3-18.6 18.6-18.6s18.6 8.3 18.6 18.6V340.3c0 6.2 0.6 10 1.2 12.1 4.1-1.4 10.8-5.5 15.5-9.7 7.7-6.8 19.4-6.1 26.3 1.6 6.9 7.6 6.2 19.3-1.4 26.2zM467.7 533.2h210.6c10.3 0 18.6 8.3 18.6 18.6s-8.3 18.6-18.6 18.6H467.7c-10.3 0-18.6-8.3-18.6-18.6s8.3-18.6 18.6-18.6zM546 524.1c-30.3 0-55-24.7-55-55s24.7-55 55-55h64c30.3 0 55 24.7 55 55s-24.7 55-55 55h-64z m81.7-55c0-9.8-8-17.8-17.8-17.8h-64c-9.8 0-17.8 8-17.8 17.8s8 17.7 17.8 17.7h64c9.8 0 17.8-7.9 17.8-17.7zM592.1 397.3h-38.2c-56.5 0-102.4-45.9-102.4-102.4s45.9-102.4 102.4-102.4h38.2c56.5 0 102.4 45.9 102.4 102.4s-45.9 102.4-102.4 102.4z m62.1-83.8h-62.6V359c0 0.4-0.2 0.7-0.2 1.1h0.7c29.4-0.1 54.1-19.8 62.1-46.6zM553.9 360h0.7c0-0.4-0.2-0.7-0.2-1.1v-45.5h-62.6c8 26.9 32.7 46.6 62.1 46.6z m-62.1-83.7h62.6v-46.5h-0.5c-29.4-0.1-54.1 19.6-62.1 46.5z m100.3-46.6h-0.5v46.5h62.6c-8-26.8-32.7-46.5-62.1-46.5z"  horiz-adv-x="1024" />

    
    <glyph glyph-name="1" unicode="&#58942;" d="M887.3 613L587.9 741.3c-31.1 13.3-67.2-1.1-80.6-32.2L290 201.7c-13.3-31.1 1.1-67.2 32.2-80.6l299.4-128.3c31.1-13.3 67.2 1.1 80.6 32.2l217.3 507.3c13.4 31.3-1.1 67.4-32.2 80.7zM904.6 517.4c6.8 2.5 12.3 8.3 13.4 15.5 3.5 22.2-8.2 44.7-29.8 54l-320 137c-21.6 9.2-46 2.2-59.6-15.7-4.4-5.8-4.9-13.7-1.9-20.4l94.8-217.3c13.5-30.9 48.7-46 80.4-34.5l222.7 81.4zM913.9 539.1c6.8 2.5 12.3 8.3 13.4 15.5 3.5 22.2-8.2 44.7-29.8 54l-320 137.1c-21.6 9.2-46 2.2-59.6-15.7-4.4-5.8-4.9-13.7-1.9-20.4l94.8-217.3c13.5-30.9 48.7-46 80.4-34.5l222.7 81.3zM637.8 444.2m-123.5 0a123.5 123.5 0 1 1 247 0 123.5 123.5 0 1 1-247 0ZM644.2 459.2m-123.5 0a123.5 123.5 0 1 1 247 0 123.5 123.5 0 1 1-247 0ZM636.2 535c-0.9 0-1.9 0.2-2.8 0.6l-16.9 7.3c-3.6 1.6-5.3 5.7-3.7 9.3 1.5 3.6 5.7 5.3 9.3 3.7l16.9-7.3c3.6-1.6 5.3-5.7 3.7-9.3-1.1-2.7-3.8-4.3-6.5-4.3zM560.6 459.9c-2.4 0-4.7 1.2-6 3.3-2.1 3.3-1.1 7.7 2.2 9.8l66 41.6-32.8 14c-3.6 1.6-5.3 5.7-3.7 9.3 1.5 3.6 5.7 5.3 9.3 3.7l36.7-15.7c4.1-1.8 6.9-5.6 7.2-10.1 0.4-4.5-1.8-8.7-5.6-11.1l-69.6-43.9c-1.1-0.6-2.4-0.9-3.7-0.9z m66.1 53h0.2-0.2zM578.4 412.5l-13.1 5.6 20.5 47.9c4 9.3 9.3 14 15.8 14.1 10.5 0.6 17.3-12.9 18.5-15.5 1.7-3.5 0.1-7.8-3.4-9.4-3.5-1.7-7.8-0.1-9.4 3.4-1.5 3.1-4.1 6.5-5.5 7.3 0-0.4-1.3-1.7-2.9-5.4l-20.5-48zM740.3 490.4c-0.9 0-1.9 0.2-2.8 0.6l-82.2 35.2c-3.6 1.6-5.3 5.7-3.7 9.3 1.5 3.6 5.7 5.3 9.3 3.7l82.2-35.2c3.6-1.6 5.3-5.7 3.7-9.3-1.1-2.7-3.7-4.3-6.5-4.3zM699.8 454.1c-3 0-6 0.6-8.9 1.8l-25 10.7c-5.5 2.4-9.8 6.8-12.1 12.3-2.2 5.6-2.2 11.7 0.2 17.3 2.4 5.6 6.8 9.8 12.4 12.1 5.6 2.2 11.7 2.2 17.3-0.2l25-10.7c5.5-2.4 9.8-6.8 12.1-12.4 2.2-5.6 2.2-11.7-0.2-17.3-2.4-5.6-6.8-9.8-12.4-12.1-2.7-1-5.6-1.5-8.4-1.5z m-32.7 36.5c-0.9-2.1-0.9-4.3-0.1-6.4 0.8-2.1 2.4-3.7 4.5-4.6l25-10.7c2.1-0.9 4.3-0.9 6.4-0.1 2.1 0.8 3.7 2.4 4.6 4.5 1.8 4.2-0.2 9.1-4.4 11l-25 10.7c-2.1 0.9-4.3 0.9-6.4 0.1-2.1-0.8-3.7-2.4-4.6-4.5zM663.7 368.9c-5.7 0-11.4 1.1-16.8 3.5l-14.9 6.4c-10.5 4.5-18.6 12.8-22.8 23.4-4.2 10.6-4.1 22.2 0.4 32.7 4.5 10.5 12.8 18.6 23.4 22.8 10.6 4.2 22.2 4.1 32.7-0.4l14.9-6.4c10.5-4.5 18.6-12.8 22.8-23.4 4.2-10.6 4.1-22.2-0.4-32.7-4.5-10.5-12.8-18.6-23.4-22.8-5.2-2.1-10.6-3.1-15.9-3.1z m-14.9 77.6c-3.6 0-7.2-0.7-10.6-2.1-7.1-2.8-12.6-8.2-15.6-15.2s-3.1-14.7-0.3-21.8c2.8-7.1 8.2-12.6 15.2-15.6l14.9-6.4c7-3 14.7-3.1 21.8-0.3 7.1 2.8 12.6 8.2 15.6 15.2s3.1 14.7 0.3 21.8c-2.8 7.1-8.2 12.6-15.2 15.6l-14.9 6.4c-3.6 1.6-7.4 2.4-11.2 2.4zM616 432h0.2-0.2zM696.4 390.5c-0.9 0-1.9 0.2-2.8 0.6l-80.4 34.4c-3.6 1.6-5.3 5.7-3.7 9.3 1.5 3.6 5.7 5.3 9.3 3.7l80.4-34.4c3.6-1.6 5.3-5.7 3.7-9.3-1.1-2.7-3.7-4.3-6.5-4.3zM644.9 381.2c-0.9 0-1.9 0.2-2.8 0.6-3.6 1.6-5.3 5.7-3.7 9.3l22.1 51.5c1.5 3.6 5.7 5.3 9.3 3.7 3.6-1.6 5.3-5.7 3.7-9.3l-22.1-51.5c-1.1-2.7-3.8-4.3-6.5-4.3zM576.5 745.7c-21.6 9.2-46 2.2-59.6-15.7-2-2.6-3-5.6-3.5-8.8-2.8-3.7-5.2-7.7-7.2-12.2L289 201.7c-13.3-31.1 1.1-67.2 32.2-80.6l299.4-128.3c16.5-7.1 34.2-6.2 49.3 0.7 9.5 10.8 15.4 24.8 15.4 40.3V699.1l-108.8 46.6zM592.1 798.4H165.8c-33.9 0-61.4-27.5-61.4-61.4v-703.3c0-33.9 27.5-61.4 61.4-61.4h426.3c33.9 0 61.4 27.5 61.4 61.4V737.1c0 33.9-27.5 61.3-61.4 61.3zM644 699.2c6.5 6.1 9.8 15.3 7.7 23.9-6.7 26.6-30.8 46.4-59.5 46.4H165.8c-28.7 0-52.8-19.7-59.5-46.4-2.2-8.6 1.2-17.8 7.7-23.9l211.5-198.8c30.1-28.3 77-28.3 107.1 0L644 699.2zM644 728.2c6.5 6.1 9.8 15.3 7.7 23.9-6.7 26.6-30.8 46.4-59.5 46.4H165.8c-28.7 0-52.8-19.7-59.5-46.4-2.2-8.6 1.2-17.8 7.7-23.9l211.5-198.8c30.1-28.3 77-28.3 107.1 0L644 728.2zM378.9 488.2m-151.2 0a151.2 151.2 0 1 1 302.4 0 151.2 151.2 0 1 1-302.4 0ZM378.9 508.1m-151.2 0a151.2 151.2 0 1 1 302.4 0 151.2 151.2 0 1 1-302.4 0ZM332.8 579.8h-20.5c-4.8 0-8.7 3.9-8.7 8.7s3.9 8.7 8.7 8.7h20.5c4.8 0 8.7-3.9 8.7-8.7s-3.9-8.7-8.7-8.7zM288.4 470c-1.7 0-3.4 0.5-4.9 1.5-4 2.7-5 8.2-2.2 12.1l48.3 70.1h-38c-4.8 0-8.7 3.9-8.7 8.7s3.9 8.7 8.7 8.7h44.3c5.3 0 10.1-2.9 12.5-7.6 2.5-4.7 2.1-10.3-0.9-14.6l-51.9-75.3c-1.7-2.3-4.4-3.6-7.2-3.6z m47.4 83.8h0.2-0.2zM322.5 422.1c-4.8 0-8.7 3.9-8.7 8.7v57.8c0 11.6 3.5 19 10.5 22.1 10.9 4.9 23.1-4.8 26.6-7.9 3.6-3.2 3.9-8.7 0.7-12.3-3.2-3.6-8.7-3.9-12.3-0.7-2.4 2.1-5.8 4.2-7.7 4.7 0.1-0.7-0.3-2.5-0.3-5.9v-57.8c-0.1-4.8-4-8.7-8.8-8.7zM458.6 579.8h-99.4c-4.8 0-8.7 3.9-8.7 8.7s3.9 8.7 8.7 8.7h99.4c4.8 0 8.7-3.9 8.7-8.7s-3.9-8.7-8.7-8.7zM426.3 523.6h-30.2c-14.3 0-25.9 11.6-25.9 25.9 0 14.3 11.6 25.9 25.9 25.9h30.2c14.3 0 25.9-11.6 25.9-25.9 0-14.3-11.6-25.9-25.9-25.9z m-30.1 34.3c-4.7 0-8.5-3.8-8.5-8.4 0-4.7 3.8-8.5 8.5-8.5h30.2c4.7 0 8.5 3.8 8.5 8.5 0 4.6-3.8 8.4-8.5 8.4h-30.2zM417.9 419h-18c-26.6 0-48.3 21.7-48.3 48.3 0 26.6 21.7 48.3 48.3 48.3h18c26.6 0 48.3-21.7 48.3-48.3 0-26.7-21.7-48.3-48.3-48.3z m-18 79.1c-17 0-30.8-13.8-30.8-30.8s13.8-30.8 30.8-30.8h18c17 0 30.8 13.8 30.8 30.8s-13.8 30.8-30.8 30.8h-18zM457.5 458.5h-97.1c-4.8 0-8.7 3.9-8.7 8.7s3.9 8.7 8.7 8.7h97.1c4.8 0 8.7-3.9 8.7-8.7s-3.9-8.7-8.7-8.7zM408.9 426.5c-4.8 0-8.7 3.9-8.7 8.7v62.2c0 4.8 3.9 8.7 8.7 8.7s8.7-3.9 8.7-8.7v-62.2c0-4.8-3.9-8.7-8.7-8.7z"  horiz-adv-x="1024" />

    
    <glyph glyph-name="11" unicode="&#58943;" d="M667.3 392.7h-25.6c0 224.1-71.8 413.4-156.9 413.4S327.9 616.8 327.9 392.7h-25.6c0 246.2 80.2 439.1 182.5 439.1s182.5-192.9 182.5-439.1zM476.2 819c100.5 0 179.5-186.2 182.3-426.2h8.8c0 246.2-80.2 439.1-182.5 439.1-39 0-74.7-28.1-104.1-76.4 27.7 40.1 60.2 63.5 95.5 63.5zM319.6 392.7h8.3c0 148.2 31.5 280.8 77.4 353.9-49.1-67.7-83.8-201.9-85.7-353.9zM482.9 236.5m-300 0a300 300 0 1 1 600 0 300 300 0 1 1-600 0ZM482.9 236.5m-272 0a272 272 0 1 1 544 0 272 272 0 1 1-544 0ZM482.9 236.5m-254.4 0a254.4 254.4 0 1 1 508.8 0 254.4 254.4 0 1 1-508.8 0ZM393.5 340.9h29.8c7.1 0 12.8 5.7 12.8 12.8 0 7.1-5.7 12.8-12.8 12.8h-29.8c-7.1 0-12.8-5.7-12.8-12.8 0-7 5.8-12.8 12.8-12.8zM446.3 317.5c-3.6 6.9-10.6 11.1-18.4 11.1h-64.6c-7.1 0-12.8-5.7-12.8-12.8 0-7.1 5.7-12.8 12.8-12.8h55.3l-70.4-102.1c-4-5.8-2.6-13.8 3.3-17.9 2.2-1.5 4.8-2.3 7.3-2.3 4.1 0 8.1 1.9 10.6 5.5L445 296.1c4.4 6.4 4.9 14.6 1.3 21.4zM449.8 228.9c-5.1 4.5-22.9 18.7-38.9 11.5-10.2-4.6-15.3-15.4-15.3-32.4v-84.4c0-7.1 5.7-12.8 12.8-12.8s12.8 5.7 12.8 12.8V208c0 4.3 0.4 6.9 0.8 8.3 2.8-1 7.4-3.8 10.7-6.7 5.3-4.7 13.4-4.2 18.1 1.1 4.8 5.5 4.3 13.5-1 18.2zM462 340.9h145c7.1 0 12.8 5.7 12.8 12.8 0 7.1-5.7 12.8-12.8 12.8H462c-7.1 0-12.8-5.7-12.8-12.8 0-7 5.7-12.8 12.8-12.8zM515.9 334.7c-20.9 0-37.9-17-37.9-37.9s17-37.9 37.9-37.9h44c20.9 0 37.9 17 37.9 37.9s-17 37.9-37.9 37.9h-44z m56.3-37.9c0-6.8-5.5-12.2-12.2-12.2h-44c-6.7 0-12.2 5.5-12.2 12.2 0 6.7 5.5 12.2 12.2 12.2h44c6.7 0 12.2-5.4 12.2-12.2zM547.6 247.4h-26.3c-38.9 0-70.5-31.6-70.5-70.5s31.6-70.5 70.5-70.5h26.3c38.9 0 70.5 31.6 70.5 70.5s-31.6 70.5-70.5 70.5z m42.8-57.7h-43.1V221c0 0.3-0.1 0.5-0.2 0.8h0.5c20.3-0.1 37.3-13.6 42.8-32.1z m-69.1 32h0.5c0-0.3-0.2-0.5-0.2-0.8v-31.3h-43.1c5.6 18.6 22.6 32.1 42.8 32.1zM478.6 164h43.1v-32h-0.3c-20.3 0-37.3 13.6-42.8 32z m69-32h-0.3v32h43.1c-5.5-18.4-22.5-32-42.8-32zM830.3 546.1c-2.4 2.4-5.3 4.1-8.2 5.5-0.8 0.4-1.5 0.8-2.2 1.1-10.3 3.8-22.3 1.7-30.6-6.5l-183-183.1c-29.1 12.7-64.2 7.3-88-16.5-31.1-31.1-31.1-81.4 0-112.5 31.1-31.1 81.4-31.1 112.5 0 23.8 23.8 29.2 58.9 16.5 88l183 182.9c11.3 11.3 11.3 29.8 0 41.1zM834.4 534.8L611.5 311.9c-9-9-23.8-9-32.8 0l-8.3 8.3c-9 9-9 23.8 0 32.8l222.9 222.9c9 9 23.8 9 32.8 0l8.3-8.3c9-9 9-23.8 0-32.8zM813.3 547.6L598.6 333c-8.2-8.2-20.3-10.3-30.6-6.5 1.4-3.8 3.5-7.4 6.5-10.5 11.3-11.3 29.8-11.3 41.1 0l214.6 214.6c11.3 11.3 11.3 29.8 0 41.1-3.1 3.1-6.7 5.1-10.5 6.5 3.9-10.3 1.8-22.3-6.4-30.6zM574.6 316m-79.5 0a79.5 79.5 0 1 1 159 0 79.5 79.5 0 1 1-159 0ZM606.5 284.1c-26.9-26.9-68.1-30.4-98.9-10.8 3.1-4.8 6.6-9.4 10.8-13.6 31.1-31.1 81.4-31.1 112.5 0 31.1 31.1 31.1 81.4 0 112.5-4.2 4.2-8.8 7.7-13.6 10.8 19.5-30.7 16-72-10.8-98.9z"  horiz-adv-x="1024" />

    
    <glyph glyph-name="8" unicode="&#58944;" d="M445.46 645.115l272.602 52.494 124.56-646.843-272.603-52.494zM469.693 609.349l239.117 46.046 111.645-579.773-239.117-46.046zM567.298 12.22L839.9 64.713l4.274-22.194-272.603-52.494zM725 692.8L440.7 638c-8.2-1.6-16.2 3.8-17.8 12.1-1.6 8.2 3.8 16.2 12.1 17.8l284.4 54.8c8.2 1.6 16.2-3.8 17.8-12.1 1.5-8.2-4-16.2-12.2-17.8zM453.4 640.5L720.7 692c15.2 2.9 16.7 10.2 16.3 18.6l-314.2-60.5c1.6-8.2 15.4-12.5 30.6-9.6zM850.3 23.4L571-30.4c-9.6-1.9-19 4.5-20.8 14.1-1.9 9.6 4.5 19 14.1 20.8l279.3 53.8c9.6 1.9 19-4.5 20.8-14.1 1.9-9.6-4.4-19-14.1-20.8zM576.5-29.1l270.1 51.8c15.2 2.9 19.6 11.9 17.8 21.5l-314.2-60.5c1.9-9.6 11.1-15.8 26.3-12.8zM549.1 539.3l19.4 3.7c4.6 0.9 7.6 5.3 6.7 9.9-0.9 4.6-5.3 7.6-9.9 6.7l-19.4-3.7c-4.6-0.9-7.6-5.3-6.7-9.9 0.8-4.6 5.3-7.6 9.9-6.7zM586.3 530.7c-3.2 4-8.3 5.9-13.3 4.9l-42-8.1c-4.6-0.9-7.6-5.3-6.7-9.9 0.9-4.6 5.3-7.6 9.9-6.7l35.9 6.9-33-75.2c-1.9-4.3 0.1-9.3 4.4-11.2 1.6-0.7 3.4-0.9 5-0.6 2.6 0.5 5 2.3 6.2 4.9l35.5 80.9c2 4.7 1.3 10.1-1.9 14.1zM599.7 473.6c-3.9 2.3-17.2 9.3-26.7 2.6-6-4.2-8-11.9-5.9-22.9l10.6-54.9c0.9-4.6 5.3-7.6 9.9-6.7s7.6 5.3 6.7 9.9l-10.6 54.9c-0.5 2.8-0.6 4.5-0.5 5.5 2-0.3 5.3-1.5 7.8-3 4-2.4 9.2-1 11.6 3 2.4 4 1.1 9.2-2.9 11.6zM593.6 547.9l94.3 18.2c4.6 0.9 7.6 5.3 6.7 9.9-0.9 4.6-5.3 7.6-9.9 6.7l-94.3-18.2c-4.6-0.9-7.6-5.3-6.7-9.9 0.8-4.6 5.3-7.6 9.9-6.7zM629.4 550.6c-13.6-2.6-22.5-15.8-19.9-29.4 2.6-13.6 15.8-22.5 29.4-19.9l28.6 5.5c13.6 2.6 22.5 15.8 19.9 29.4-2.6 13.6-15.8 22.5-29.4 19.9l-28.6-5.5z m41.3-17.6c0.8-4.4-2-8.6-6.4-9.5l-28.6-5.5c-4.4-0.8-8.6 2-9.5 6.4-0.8 4.4 2 8.6 6.4 9.5l28.6 5.5c4.4 0.8 8.7-2 9.5-6.4zM661 497.8l-17.1-3.3c-25.3-4.9-41.9-29.4-37-54.7 4.9-25.3 29.4-41.9 54.7-37l17.1 3.3c25.3 4.9 41.9 29.4 37 54.7-4.9 25.3-29.5 41.9-54.7 37z m35-32.2l-28-5.4-3.9 20.3c0 0.2-0.1 0.3-0.2 0.5l0.3 0.1c13.1 2.6 25.9-4.1 31.8-15.5z m-48.9 12.2l0.3 0.1v-0.5l3.9-20.3-28-5.4c1.3 12.6 10.6 23.6 23.8 26.1zM626.5 435l28 5.4 4-20.8h-0.2c-13.2-2.6-25.9 4.1-31.8 15.4z m48.9-12.2h-0.2l-4 20.8 28 5.4c-1.3-12.7-10.6-23.7-23.8-26.2zM716.3 284.2L598 260.6c-11.8-2.4-19.9-0.2-23.9 6.3-7.1 11.5 5.1 29.4 10.7 36.5 2.9 3.7 8.2 4.3 11.9 1.5 3.7-2.9 4.3-8.2 1.5-11.9-4.3-5.5-8.2-12.6-9.1-16.3 1.1 0 2.9 0.1 5.6 0.6L713 300.8c4.6 0.9 9.1-2.1 10-6.7 0.8-4.5-2.1-9-6.7-9.9zM687.7 244.7l-68.3-13.6c-4.6-0.9-9.1 2.1-10 6.7-0.9 4.6 2.1 9.1 6.7 10l68.3 13.6c4.6 0.9 9.1-2.1 10-6.7 0.9-4.6-2.1-9.1-6.7-10zM744 137.7c-2.5-0.5-5.1-0.5-7.8 0-7.9 1.6-14 7.7-15.6 15.6l-11.3 57c-0.3 1.5-1.8 2.5-3.3 2.2l-113.1-21.6c-4.6-0.9-9.1 2.1-9.9 6.7-0.9 4.6 2.1 9 6.7 9.9h0.1L703 229.1c10.7 2 21-5 23.1-15.6l11.3-57c0.3-1.6 1.5-2.1 2.2-2.2 0.7-0.1 2-0.1 2.9 1.2l11.1 16.5c2.6 3.9 7.9 4.9 11.8 2.3 3.9-2.6 4.9-7.9 2.3-11.8L756.6 146c-3-4.3-7.6-7.3-12.6-8.3zM550.2-16.3c0.3-1.5 1-2.7 1.7-4l1.7 18c-2.9-3.9-4.4-8.9-3.4-14zM434.9 667.9c-8.2-1.6-13.6-9.6-12.1-17.8 1.6-8.2 9.6-13.6 17.8-12.1l5.9 1.1L559 54.8l62.1 648.9-186.2-35.8zM265.635 801.353l336.18-32.161-76.312-797.695-336.18 32.162zM213.264 36.164l68.409 715.067 294.966-28.218-68.408-715.068zM190.985 20.773l336.18-32.16-2.619-27.377-336.18 32.161zM614.3 797.7l-355.6 34c-8.8 0.8-16.7-5.7-17.5-14.4l-0.5-4.9c-0.8-8.8 5.7-16.7 14.5-17.5l355.6-34c8.8-0.8 16.7 5.7 17.5 14.4l0.5 4.9c0.8 8.8-5.7 16.6-14.5 17.5zM264.9 794L601 761.7c18.8-1.8 26.9 3.8 27.5 16L241 814.8c-1-10.1 1.5-20.8 23.9-20.8zM532.1-20.4L182 13.1c-10.3 1-19.5-6.6-20.5-16.9l-0.5-5.7c-1-10.3 6.6-19.5 16.9-20.5L528-63.5c10.3-1 19.5 6.6 20.5 16.9l0.5 5.7c1 10.3-6.6 19.5-16.9 20.5zM176.3-29.8l340.5-32.6c26.3-4.4 30.8 6.8 32 18.7l-387.5 37.1c-1.2-11.9 4.7-21.7 15-23.2zM350.3 642.3l23.9-2.3c5.7-0.5 10.7 3.6 11.3 9.3 0.5 5.7-3.6 10.7-9.3 11.3l-23.9 2.3c-5.7 0.5-10.7-3.6-11.3-9.3s3.7-10.8 9.3-11.3zM390.8 619.4c-2.4 5.8-7.7 9.7-13.9 10.3l-51.8 5c-5.7 0.5-10.7-3.6-11.3-9.3s3.6-10.7 9.3-11.3l44.3-4.2-64.3-76.5c-3.7-4.4-3.1-10.9 1.3-14.6 1.7-1.4 3.6-2.2 5.6-2.4 3.3-0.3 6.6 0.9 8.9 3.6l69.1 82.2c4.2 4.9 5.2 11.5 2.8 17.2zM386.9 548.2c-3.7 4-16.9 16.7-30.3 12.2-8.5-2.9-13.5-11.2-14.8-24.8l-6.5-67.7c-0.5-5.7 3.6-10.7 9.3-11.3 5.7-0.5 10.7 3.6 11.3 9.3l6.5 67.7c0.3 3.4 0.9 5.5 1.3 6.6 2.2-1 5.7-3.6 8-6.2 3.9-4.1 10.4-4.4 14.6-0.5 4.2 4 4.5 10.5 0.6 14.7zM405.2 637l116.2-11.1c5.7-0.5 10.7 3.6 11.3 9.3 0.5 5.7-3.6 10.7-9.3 11.3l-116.2 11.1c-5.7 0.5-10.7-3.6-11.3-9.3-0.5-5.7 3.6-10.7 9.3-11.3zM447.9 627.9c-16.7 1.6-31.7-10.7-33.3-27.4-1.6-16.7 10.7-31.7 27.5-33.3l35.3-3.4c16.7-1.6 31.7 10.7 33.3 27.5 1.6 16.7-10.7 31.7-27.5 33.3l-35.3 3.3z m42.2-34.7c-0.5-5.4-5.3-9.4-10.7-8.9l-35.3 3.4c-5.4 0.5-9.4 5.3-8.9 10.8 0.5 5.4 5.3 9.4 10.7 8.9l35.3-3.4c5.5-0.6 9.5-5.4 8.9-10.8zM466.7 555.4l-21.1 2c-31.2 3-59-19.9-61.9-51.1s20-59 51.1-61.9l21.1-2c31.2-3 59 19.9 61.9 51.1s-19.9 59-51.1 61.9z m29.9-49.5l-34.6 3.3 2.4 25.1c0 0.2-0.1 0.4-0.1 0.6h0.4c16.3-1.6 28.8-13.8 31.9-29z m-53 31h0.4c0-0.2-0.2-0.4-0.2-0.6l-2.4-25.1-34.6 3.3c6 14.4 20.6 24 36.8 22.4z m-38.7-43l34.6-3.3-2.5-25.7h-0.3c-16.2 1.6-28.7 13.8-31.8 29z m53-31h-0.3l2.5 25.7 34.6-3.3c-6-14.3-20.6-23.9-36.8-22.4zM458 287.1l-146.1 13.1c-14.6 1.3-23.3 6.5-25.7 15.5-4.3 15.9 16.1 32.5 25 38.9 4.6 3.3 11.1 2.2 14.4-2.4 3.3-4.6 2.3-11.1-2.4-14.4-6.9-5-13.9-11.9-16.3-15.9 1.3-0.4 3.4-0.9 6.7-1.2l146.1-13.1c5.7-0.5 9.9-5.5 9.4-11.2-0.4-5.6-5.4-9.8-11.1-9.3zM411.2 250.8l-84.4 7.5c-5.7 0.5-9.9 5.5-9.4 11.2s5.5 9.9 11.2 9.4l84.4-7.5c5.7-0.5 9.9-5.5 9.4-11.2-0.5-5.7-5.5-9.9-11.2-9.4zM440.2 106.7c-3.1 0.3-6.2 1.2-9.1 2.7-8.7 4.5-13.7 13.8-12.8 23.5l6.3 70.4c0.2 1.9-1.2 3.6-3.1 3.8L282 220.6c-5.7 0.5-9.8 5.6-9.3 11.3 0.6 5.6 5.6 9.8 11.2 9.3h0.1l139.5-13.6c13.1-1.3 22.8-13.1 21.7-26.2l-6.3-70.4c-0.2-2 1.1-3 1.8-3.4 0.8-0.4 2.3-0.9 3.8 0.4l18.6 15.5c4.4 3.7 10.9 3.1 14.5-1.3 3.7-4.4 3.1-10.9-1.3-14.5l-18.6-15.5c-4.9-4.2-11.3-6.1-17.5-5.5z"  horiz-adv-x="1024" />

    
    <glyph glyph-name="10" unicode="&#58945;" d="M632.7 642.8H391.3c-28 0-2.5 21.9 11.1 39.7 6 7.8 24.1 31.2 24.1 31.2 6.2 8.1 6.2 18 0 26l-24 31.3c-13.7 17.8 4 39.7 32 39.7h155.1c28 0 45.6-21.9 32-39.7l-24.1-31.2c-6.2-8.1-6.2-18 0-26 0 0 18-23.4 24.1-31.2 13.6-17.9 39-39.8 11.1-39.8zM466.7 676.8c-187.6-20.7-336.9-176-351.2-364.2-10.5-138.7 50.3-263.5 149.4-342.2 28.2-22.4 63.3-34.3 99.3-34.3h295.6c35.6 0 70.5 11.6 98.5 33.7 92.1 72.8 151.4 185.3 151.4 311.9 0 234.5-203.1 421.7-443 395.1zM641.7 657.6c-4.9 7.4-13.8 16.6-20.1 24.9-6 7.8-24.1 31.2-24.1 31.2-6.2 8.1-6.2 18 0 26l24.1 31.2c13.7 17.8-4 39.7-32 39.7H475.3c28 0 45.6-21.9 32-39.7l-24.1-31.2c-6.2-8.1-6.2-18 0-26 0 0 18-23.4 24.1-31.2 6.4-8.3 15.3-17.4 20.1-24.9 155.9-53.8 268-201.7 268-376 0-126.5-59.2-239.1-151.4-311.9-28-22.1-62.8-33.7-98.5-33.7h114.2c35.6 0 70.5 11.6 98.5 33.7 92.1 72.8 151.4 185.3 151.4 311.9 0.1 174.3-112 322.3-267.9 376zM397.8 785.9a114.2 46 0 1 1 228.4 0 114.2 46 0 1 1-228.4 0ZM437.7 785.9a74.3 26.9 0 1 1 148.6 0 74.3 26.9 0 1 1-148.6 0ZM394.3 435.5h39.3c9.3 0 16.9 7.6 16.9 16.9 0 9.3-7.6 16.9-16.9 16.9h-39.3c-9.3 0-16.9-7.6-16.9-16.9 0-9.3 7.5-16.9 16.9-16.9zM463.8 404.7c-4.7 9-14 14.7-24.2 14.7h-85.2c-9.3 0-16.9-7.6-16.9-16.9 0-9.3 7.6-16.9 16.9-16.9h72.9L334.5 251c-5.3-7.7-3.4-18.2 4.3-23.5 2.9-2 6.3-3 9.6-3 5.4 0 10.6 2.5 13.9 7.3l99.8 144.7c5.8 8.3 6.4 19.1 1.7 28.2zM468.5 287.9c-6.7 6-30.1 24.7-51.2 15.2-13.4-6-20.2-20.3-20.2-42.6v-111.2c0-9.3 7.6-16.9 16.9-16.9 9.3 0 16.9 7.6 16.9 16.9V260.5c0 5.6 0.6 9 1.1 11 3.7-1.3 9.8-5 14.1-8.8 7-6.1 17.6-5.5 23.8 1.5 6.1 6.9 5.5 17.5-1.4 23.7zM484.5 435.5h191.1c9.3 0 16.9 7.6 16.9 16.9 0 9.3-7.6 16.9-16.9 16.9H484.5c-9.3 0-16.9-7.6-16.9-16.9 0-9.3 7.6-16.9 16.9-16.9zM555.5 427.3c-27.5 0-49.9-22.4-49.9-49.9s22.4-49.9 49.9-49.9h58c27.5 0 49.9 22.4 49.9 49.9s-22.4 49.9-49.9 49.9h-58z m74.2-49.9c0-8.9-7.2-16.1-16.1-16.1h-58c-8.9 0-16.1 7.2-16.1 16.1 0 8.9 7.2 16.1 16.1 16.1h58c8.9 0 16.1-7.2 16.1-16.1zM597.4 312.2h-34.7c-51.2 0-92.9-41.7-92.9-92.9 0-51.3 41.7-92.9 92.9-92.9h34.7c51.2 0 92.9 41.7 92.9 92.9 0 51.3-41.7 92.9-92.9 92.9z m56.4-76H597v41.3c0 0.4-0.2 0.6-0.2 1h0.6c26.7 0 49-17.9 56.4-42.3z m-91.1 42.3h0.6c0-0.3-0.2-0.6-0.2-1v-41.3h-56.8c7.4 24.4 29.7 42.3 56.4 42.3z m-56.4-76.1h56.8v-42.2h-0.4c-26.7 0-49 17.9-56.4 42.2z m91.1-42.2h-0.4v42.2h56.8c-7.4-24.3-29.7-42.2-56.4-42.2zM512-6c-167.6 0-303.9 136.3-303.9 303.9S344.4 601.7 512 601.7c167.6 0 303.9-136.3 303.9-303.9S679.6-6 512-6z m0 579.5c-152 0-275.6-123.6-275.6-275.6S360 22.2 512 22.2s275.7 123.6 275.7 275.6S664 573.5 512 573.5zM818.2 200.3c1.8 7 3.3 13.8 4.6 20.5 0.6 2.9 1.2 5.8 1.6 8.6 1.4 8 2.4 15.8 3.2 23.5 0.1 1.1 0.3 2.2 0.4 3.2 0.7 8.5 1 16.8 1 24.9 0 2.6-0.1 5.2-0.2 7.8-0.2 5.6-0.5 11.2-1 16.6-0.3 2.8-0.5 5.5-0.9 8.3-0.7 5.8-1.7 11.5-2.8 17.1-0.4 1.9-0.6 3.8-1 5.6-1.5 7-3.4 13.8-5.5 20.5-0.8 2.6-1.8 5.2-2.7 7.8-1.5 4.3-3.1 8.5-4.8 12.7-1.2 2.8-2.3 5.6-3.6 8.4-1.8 4-3.8 8-5.8 11.9-1.3 2.5-2.4 5-3.8 7.4-3.1 5.7-6.4 11.2-9.9 16.7-1.8 2.9-3.8 5.7-5.7 8.5-2 3-4.1 6-6.3 8.9-2.2 3-4.4 5.9-6.7 8.8-2 2.6-4.1 5.2-6.3 7.8-22.2 27-48.2 51.6-75.6 74.6-97.3 81.9-172.6 183-173.4 184l-52-38.5c3.2-4.4 80.4-108.1 183.7-195 35.2-29.6 64.1-58.5 84.7-89.3 21.4-32.1 31-69 29.9-105.7 0-1.5 0-2.9-0.1-4.4-0.4-8-1.5-15.9-3-23.7-0.3-1.7-0.6-3.4-1-5.1-1.7-7.8-3.9-15.5-6.6-23.1-0.5-1.5-1.1-3-1.7-4.5-3-7.7-6.4-15.4-10.4-22.7-0.5-1-1.2-1.9-1.7-2.9-4.4-7.8-9.3-15.4-14.9-22.6-19.2-24.7-42.3-51.1-61-63.2-2.7-1.7-5.3-3.2-7.7-4.2 48.4 15.7 88.2 41.3 88.2 41.3S702.3 50.6 665.1 32c22.2 6.1 48.5 24.4 71.5 43.7 9.2 7.7 17.9 15.6 25.6 22.9 3.9 3.6 7.5 7.2 10.8 10.4 7.5 7.4 14.1 15.6 19.7 24.4 4.8 7.5 8.7 15.6 11.9 23.9 0.6 1.4 1.3 2.8 1.8 4.3 3.6 10.2 6.6 20 9.3 29.7 1.1 3.2 1.8 6.1 2.5 9zM716.2 530.6c-97.3 81.9-172.6 183-173.4 184l-52-38.5c3.2-4.4 80.4-108.1 183.7-195 35.2-29.6 64.1-58.5 84.7-89.3 43.9-65.9 39.1-152.3-9.5-214.7-22-28.2-48.9-58.7-68.7-67.4 48.4 15.7 88.2 41.3 88.2 41.3S732 50.8 694.9 32.2c35.6 9.7 81.4 50.8 107.9 77 15 14.8 26.4 32.8 33.4 52.6 63.9 180.5-19.2 284-120 368.8zM716.2 530.6c-97.3 81.9-172.6 183-173.4 184l-52-38.5c3.2-4.4 80.4-108.1 183.7-195 35.2-29.6 64.1-58.5 84.7-89.3 43.9-65.9 39.1-152.3-9.5-214.7-22-28.2-48.9-58.7-68.7-67.4 48.4 15.7 88.2 41.3 88.2 41.3S732 50.8 694.9 32.2c35.6 9.7 81.4 50.8 107.9 77 15 14.8 26.4 32.8 33.4 52.6 63.9 180.5-19.2 284-120 368.8zM694.9 32.2c35.6 9.7 81.4 50.8 107.9 77 15 14.8 26.4 32.8 33.4 52.7 48.5 136.7 12.4 229.2-51.7 302.9 18.2-71.6 13.3-130 4.8-168.8 0.9-41.9-12.5-84.1-39.6-118.8-22-28.2-48.9-58.7-68.7-67.4 48.4 15.7 88.2 41.3 88.2 41.3S732 50.8 694.9 32.2zM629.7 667.1H393.4c-5.8 0-9.1 7.3-5.5 12.2l28.3 38.8c1.3 1.8 3.3 2.9 5.5 2.9h179.7c2.1 0 4.2-1.1 5.5-2.9l28.3-38.8c3.6-5 0.3-12.2-5.5-12.2z"  horiz-adv-x="1024" />

    
    <glyph glyph-name="12" unicode="&#58946;" d="M679.4 81.7H345.7c-134.5 0-244.5 110-244.5 244.5v180c0 49.7 40.7 90.4 90.4 90.4h642c49.7 0 90.4-40.7 90.4-90.4v-180c-0.1-134.4-110.1-244.5-244.6-244.5zM113.5 526.1a399 135.6 0 1 1 798 0 399 135.6 0 1 1-798 0ZM129.5 526.1a383 124.7 0 1 1 766 0 383 124.7 0 1 1-766 0ZM923.9 352.7H110.8l-9.6-15.4v-11.1c0-17.7 2-35 5.6-51.6l4-6.4h15.1V220c34.2-70.3 101.1-121.9 180.6-134.8h411.9c116 18.9 205.4 119.9 205.4 241v26.5z m-62.5-183h-651v98.5h651v-98.5zM899.6 149.5H124.4l22.8 42.2h729.6zM899.6 149.5H124.4l22.8-42.3h729.6zM899.6 149.5H124.4l22.8-42.3h729.6zM146.1 13V333.5l42.3-9.4v-301.7zM146.1 13V333.5l-42.2-9.4v-301.7zM146.1 13V333.5l-42.2-9.4v-301.7zM881.6 13V333.5l42.3-9.4v-301.7zM881.6 13V333.5l-42.2-9.4v-301.7zM881.6 13V333.5l-42.2-9.4v-301.7zM961.7 332.5H62.3l26.5 42.3h846.4zM961.7 332.5H62.3l26.5-42.2h846.4zM961.7 332.5H62.3l26.5-42.2h846.4zM408.9 593.7h34.6c8.2 0 14.9 3.7 14.9 8.3 0 4.6-6.7 8.3-14.9 8.3h-34.6c-8.2 0-14.9-3.7-14.9-8.3 0-4.6 6.7-8.3 14.9-8.3zM470.1 578.6c-4.2 4.4-12.3 7.2-21.3 7.2h-75c-8.2 0-14.9-3.7-14.9-8.3s6.7-8.3 14.9-8.3H438l-81.7-66.1c-4.7-3.8-3-8.9 3.8-11.6 2.6-1 5.5-1.5 8.4-1.5 4.7 0 9.4 1.2 12.3 3.6l87.8 71.1c5.1 4.1 5.6 9.4 1.5 13.9zM474.2 521.2c-5.9 2.9-26.5 12.1-45.1 7.5-11.8-2.9-17.8-10-17.8-20.9v-54.6c0-4.6 6.7-8.3 14.9-8.3s14.9 3.7 14.9 8.3v54.6c0 2.8 0.5 4.4 1 5.4 3.3-0.6 8.6-2.4 12.4-4.3 6.1-3 15.5-2.7 21 0.7 5.4 3.4 4.8 8.6-1.3 11.6zM488.3 593.7h168.3c8.2 0 14.9 3.7 14.9 8.3 0 4.6-6.7 8.3-14.9 8.3H488.3c-8.2 0-14.9-3.7-14.9-8.3 0-4.6 6.7-8.3 14.9-8.3zM550.9 589.7c-24.2 0-44-11-44-24.5s19.7-24.5 44-24.5H602c24.2 0 44 11 44 24.5s-19.7 24.5-44 24.5h-51.1z m65.3-24.5c0-4.4-6.4-7.9-14.2-7.9h-51.1c-7.8 0-14.2 3.5-14.2 7.9s6.4 7.9 14.2 7.9H602c7.8 0 14.2-3.6 14.2-7.9zM587.7 533.2h-30.5c-45.1 0-81.8-20.5-81.8-45.6s36.7-45.6 81.8-45.6h30.5c45.1 0 81.8 20.5 81.8 45.6s-36.7 45.6-81.8 45.6z m49.7-37.4h-50v20.3c0 0.2-0.2 0.3-0.2 0.5h0.6c23.4 0 43.1-8.8 49.6-20.8z m-80.2 20.8h0.6c0-0.2-0.2-0.3-0.2-0.5v-20.3h-50c6.4 12 26.1 20.8 49.6 20.8z m-49.7-37.4h50v-20.7h-0.4c-23.4 0-43.1 8.8-49.6 20.7z m80.2-20.7h-0.4v20.7h50c-6.4-11.9-26.1-20.7-49.6-20.7zM899 725.5c-1.9 1.9-4 3.1-6.3 4.2-0.6 0.3-1.1 0.6-1.7 0.8-7.9 2.9-17.1 1.3-23.4-5l-140-140c-22.3 9.7-49.1 5.6-67.3-12.6-23.8-23.8-23.8-62.3 0-86 23.8-23.8 62.3-23.8 86 0 18.2 18.2 22.3 45 12.6 67.3L899 694c8.6 8.7 8.6 22.8 0 31.5zM904.9 719.6l-176-176c-5.4-5.4-14.2-5.4-19.6 0l-11.9 11.9c-5.4 5.4-5.4 14.2 0 19.6l176 176c5.4 5.4 14.2 5.4 19.6 0l11.9-11.9c5.4-5.4 5.4-14.2 0-19.6zM886 726.7L721.8 562.5c-6.3-6.3-15.5-7.9-23.4-5 1.1-2.9 2.7-5.7 5-8 8.6-8.6 22.8-8.6 31.4 0L899 713.7c8.6 8.6 8.6 22.8 0 31.4-2.3 2.3-5.1 3.9-8 5 2.8-7.9 1.3-17.1-5-23.4zM703.4 549.5m-60.8 0a60.8 60.8 0 1 1 121.6 0 60.8 60.8 0 1 1-121.6 0ZM727.8 525.1c-20.6-20.6-52.1-23.2-75.7-8.2 2.3-3.7 5-7.2 8.2-10.4 23.8-23.8 62.3-23.8 86 0 23.8 23.8 23.8 62.3 0 86-3.2 3.2-6.7 5.9-10.4 8.2 15.1-23.5 12.4-55.1-8.1-75.6zM126.1 725.5c1.9 1.9 4 3.1 6.3 4.2 0.6 0.3 1.1 0.6 1.7 0.8 7.9 2.9 17.1 1.3 23.4-5l139.9-139.9c22.3 9.7 49.1 5.6 67.3-12.6 23.8-23.8 23.8-62.3 0-86-23.8-23.8-62.3-23.8-86 0-18.2 18.2-22.3 45-12.6 67.3L126.1 694c-8.6 8.7-8.6 22.8 0 31.5zM120.2 719.6l176-176c5.4-5.4 14.2-5.4 19.6 0l11.9 11.9c5.4 5.4 5.4 14.2 0 19.6l-176 176c-5.4 5.4-14.2 5.4-19.6 0l-11.9-11.9c-5.4-5.4-5.4-14.2 0-19.6zM139.1 726.7l164.2-164.2c6.3-6.3 15.5-7.9 23.4-5-1.1-2.9-2.7-5.7-5-8-8.6-8.6-22.8-8.6-31.4 0L126.1 713.7c-8.6 8.6-8.6 22.8 0 31.4 2.3 2.3 5.1 3.9 8 5-2.9-7.9-1.3-17.1 5-23.4zM321.7 549.5m-60.8 0a60.8 60.8 0 1 1 121.6 0 60.8 60.8 0 1 1-121.6 0ZM297.3 525.1c20.6-20.6 52.1-23.2 75.7-8.2-2.3-3.7-5-7.2-8.2-10.4-23.8-23.8-62.3-23.8-86 0-23.8 23.8-23.8 62.3 0 86 3.2 3.2 6.7 5.9 10.4 8.2-15.1-23.5-12.4-55.1 8.1-75.6z"  horiz-adv-x="1024" />

    
    <glyph glyph-name="6" unicode="&#58947;" d="M473.6 680.7v-571.9c0-31 93.9-56.2 209.6-56.2 115.8 0 209.6 25.1 209.6 56.2V680.7H473.6zM683.2 159.8c-115.8 0-209.6 25.1-209.6 56.2v-60.8c0-31 93.9-56.2 209.6-56.2 115.8 0 209.6 25.1 209.6 56.2V216c0.1-31.1-93.8-56.2-209.6-56.2zM683.2 589.9c-115.8 0-209.6 25.1-209.6 56.2v-32.6c0-31 93.9-56.2 209.6-56.2 115.8 0 209.6 25.1 209.6 56.2v32.6c0.1-31-93.8-56.2-209.6-56.2zM473.6 680.7a209.6 56.2 0 1 1 419.2 0 209.6 56.2 0 1 1-419.2 0ZM473.6 680.7a209.6 56.2 0 1 1 419.2 0 209.6 56.2 0 1 1-419.2 0ZM683.3 644.8c-89 0-146.2 14.1-172.8 26-8.7 3.9-8.7 16.1 0 20 26.5 11.9 83.7 26 172.8 26 89 0 146.2-14.1 172.8-26 8.7-3.9 8.7-16.1 0-20-26.6-12-83.8-26-172.8-26zM683.3 662.7c-74.7 0-122.7 7.1-145 13-7.3 2-7.3 8.1 0 10 22.3 6 70.3 13 145 13s122.7-7.1 145-13c7.3-2 7.3-8.1 0-10-22.3-6-70.3-13-145-13zM649.4 662.7c-0.5 2.4-12.2 59 20 107.8 20.9 31.8 54.7 52.4 100.4 61.3l9.1-46.6c-32.7-6.4-56.2-20.1-69.9-40.8-21-31.8-12.5-81.3-12.4-81.7h-47.2zM773.9 810.6c-35.6-10.6-63.1-29-80.8-55.9-22.4-34-23.5-71.5-21.9-92.1h25.4c-0.1 0.4-8.6 49.9 12.4 81.7 13.6 20.7 37.2 34.5 69.9 40.8l-5 25.5zM590.4 433.3H618c6.6 0 11.9 5.3 11.9 11.9 0 6.6-5.3 11.9-11.9 11.9h-27.7c-6.6 0-11.9-5.3-11.9-11.9 0.1-6.6 5.4-11.9 12-11.9zM639.2 411.5c-3.3 6.4-9.8 10.3-17 10.3h-59.9c-6.6 0-11.9-5.3-11.9-11.9s5.3-11.9 11.9-11.9h51.2l-65.2-94.6c-3.7-5.4-2.4-12.8 3-16.5 2.1-1.4 4.4-2.1 6.7-2.1 3.8 0 7.5 1.8 9.8 5.1L638 391.7c4.1 5.9 4.5 13.5 1.2 19.8zM642.5 329.5c-4.7 4.2-21.2 17.3-36 10.7-9.4-4.2-14.2-14.3-14.2-30V232c0-6.6 5.3-11.9 11.9-11.9 6.6 0 11.9 5.3 11.9 11.9v78.2c0 4 0.4 6.4 0.8 7.7 2.6-0.9 6.9-3.5 9.9-6.2 4.9-4.3 12.4-3.9 16.7 1 4.3 5 3.9 12.4-1 16.8zM653.8 433.3h134.3c6.6 0 11.9 5.3 11.9 11.9 0 6.6-5.3 11.9-11.9 11.9H653.8c-6.6 0-11.9-5.3-11.9-11.9 0-6.6 5.3-11.9 11.9-11.9zM703.7 427.5c-19.3 0-35.1-15.7-35.1-35.1s15.7-35.1 35.1-35.1h40.8c19.3 0 35.1 15.8 35.1 35.1s-15.7 35.1-35.1 35.1h-40.8z m52.1-35.1c0-6.3-5.1-11.3-11.3-11.3h-40.8c-6.3 0-11.3 5.1-11.3 11.3 0 6.2 5.1 11.3 11.3 11.3h40.8c6.3 0 11.3-5.1 11.3-11.3zM733.1 346.6h-24.4c-36 0-65.3-29.3-65.3-65.3s29.3-65.3 65.3-65.3h24.4c36 0 65.3 29.3 65.3 65.3 0.1 36-29.3 65.3-65.3 65.3z m39.7-53.5h-39.9v29c0 0.2-0.1 0.5-0.1 0.7h0.5c18.6 0 34.3-12.6 39.5-29.7z m-64 29.7h0.4c0-0.2-0.1-0.4-0.1-0.7v-29h-39.9c5.1 17.1 20.8 29.7 39.6 29.7z m-39.7-53.4H709v-29.7h-0.3c-18.7 0-34.4 12.6-39.6 29.7z m64-29.7h-0.3v29.7h39.9c-5.1-17.1-20.8-29.7-39.6-29.7zM586.1 590.3c0 22.6-45.1 42.3-112.4 53.1v-535.8c0-21.6 45.6-40.3 112.4-49.7V590.3zM133.1 565.6v-571.9c0-31 93.9-56.2 209.6-56.2 115.8 0 209.6 25.1 209.6 56.2V565.6H133.1zM342.7 44.7c-115.8 0-209.6 25.1-209.6 56.2v-60.8c0-31 93.9-56.2 209.6-56.2 115.8 0 209.6 25.1 209.6 56.2v60.8c0.1-31.1-93.8-56.2-209.6-56.2zM342.7 474.9C227 474.9 133.1 500 133.1 531v-32.6c0-31 93.9-56.2 209.6-56.2 115.8 0 209.6 25.1 209.6 56.2V531c0.1-31-93.8-56.1-209.6-56.1zM133.1 565.6a209.6 56.2 0 1 1 419.2 0 209.6 56.2 0 1 1-419.2 0ZM342.7 621.8c-115.8 0-209.6-25.1-209.6-56.2 0-31 93.9-56.2 209.6-56.2 115.8 0 209.6 25.1 209.6 56.2 0.1 31.1-93.8 56.2-209.6 56.2zM342.8 529.7c-89 0-146.2 14.1-172.8 26-8.7 3.9-8.7 16.1 0 20 26.5 11.9 83.7 26 172.8 26 89 0 146.2-14.1 172.8-26 8.7-3.9 8.7-16.1 0-20-26.6-11.9-83.8-26-172.8-26zM342.8 547.6c-74.7 0-122.7 7.1-145 13-7.3 2-7.3 8.1 0 10 22.3 6 70.3 13 145 13s122.7-7.1 145-13c7.3-2 7.3-8.1 0-10-22.3-6-70.3-13-145-13zM308.9 547.6c-0.5 2.4-12.2 59 20 107.8 20.9 31.8 54.7 52.4 100.4 61.3l9.1-46.6c-32.7-6.4-56.2-20.1-69.9-40.8-21-31.8-12.5-81.3-12.4-81.7h-47.2zM433.4 695.5c-35.6-10.6-63.1-29-80.8-55.9-22.4-34-23.5-71.5-21.9-92.1h25.4c-0.1 0.4-8.6 49.9 12.4 81.7 13.6 20.7 37.2 34.5 69.9 40.8l-5 25.5zM249.9 318.2h27.7c6.6 0 11.9 5.3 11.9 11.9s-5.3 11.9-11.9 11.9h-27.7c-6.6 0-11.9-5.3-11.9-11.9s5.3-11.9 11.9-11.9zM298.7 296.5c-3.3 6.4-9.8 10.3-17 10.3h-59.9c-6.6 0-11.9-5.3-11.9-11.9s5.3-11.9 11.9-11.9H273l-65.2-94.6c-3.7-5.4-2.4-12.8 3-16.5 2.1-1.4 4.4-2.1 6.7-2.1 3.8 0 7.5 1.8 9.8 5.1l70.1 101.7c4.2 5.9 4.6 13.5 1.3 19.9zM302 214.4c-4.7 4.2-21.2 17.3-36 10.7-9.4-4.2-14.2-14.3-14.2-30V117c0-6.6 5.3-11.9 11.9-11.9 6.6 0 11.9 5.3 11.9 11.9v78.2c0 4 0.4 6.4 0.8 7.7 2.6-0.9 6.9-3.5 9.9-6.2 4.9-4.3 12.4-3.9 16.7 1 4.3 4.9 3.9 12.4-1 16.7zM313.3 318.2h134.3c6.6 0 11.9 5.3 11.9 11.9s-5.3 11.9-11.9 11.9H313.3c-6.6 0-11.9-5.3-11.9-11.9s5.3-11.9 11.9-11.9zM363.2 312.4c-19.3 0-35.1-15.7-35.1-35.1 0-19.3 15.7-35.1 35.1-35.1H404c19.3 0 35.1 15.8 35.1 35.1s-15.7 35.1-35.1 35.1h-40.8z m52.1-35.1c0-6.3-5.1-11.3-11.3-11.3h-40.8c-6.3 0-11.3 5.1-11.3 11.3 0 6.2 5.1 11.3 11.3 11.3H404c6.3 0 11.3-5.1 11.3-11.3zM392.6 231.5h-24.4c-36 0-65.3-29.3-65.3-65.3s29.3-65.3 65.3-65.3h24.4c36 0 65.3 29.3 65.3 65.3 0.1 36-29.3 65.3-65.3 65.3z m39.7-53.4h-39.9v29c0 0.2-0.1 0.5-0.1 0.7h0.5c18.6 0 34.3-12.6 39.5-29.7z m-64 29.7h0.4c0-0.2-0.1-0.4-0.1-0.7v-29h-39.9c5.1 17.1 20.8 29.7 39.6 29.7z m-39.7-53.5h39.9v-29.7h-0.3c-18.7 0-34.4 12.6-39.6 29.7z m64-29.7h-0.3v29.7h39.9c-5.1-17.1-20.8-29.7-39.6-29.7z"  horiz-adv-x="1024" />

    
    <glyph glyph-name="17" unicode="&#58948;" d="M861.3 152c-57.6-59.6-94-51.1-122.5-23.6s-38.3 63.6 19.3 123.3c57.6 59.6 189.3 92.7 189.3 92.7S918.9 211.6 861.3 152zM861.3 152c57.6 59.6 86.1 192.4 86.1 192.4l-208.6-216c28.5-27.5 64.9-36.1 122.5 23.6zM820.8 190.8c-59.7 5.4-75.6-16.5-78.2-45-0.2-1.8-0.3-3.6-0.3-5.3-0.1-5.2 0.3-10.3 1.6-15.1 0.2-0.8 0.5-1.5 0.7-2.2 5.4-4.6 11.2-8.4 17.3-11.1 6.2-2.8 12.9-4.5 20-4.8 4.7-0.2 9.7 0.3 14.9 1.4 6.9 1.6 14.3 4.5 22 8.9 2.2 1.2 4.4 2.6 6.7 4 3.6 2.3 7.2 4.9 11 7.8 7.8 6.1 16.1 13.4 24.8 22.5 6.2 6.4 12 13.8 17.6 21.6-19.3 8.8-39.6 15.6-58.1 17.3zM811.4 68.8c-59.7 5.4-71.4 29.8-68.9 58.3 2.6 28.5 18.5 50.4 78.2 45 59.7-5.4 138-64.6 138-64.6s-87.6-44.1-147.3-38.7zM811.4 68.8c59.7-5.4 147.4 38.8 147.4 38.8l-216.3 19.6c-2.5-28.6 9.2-53 68.9-58.4zM162.7 557.9c57.6-59.6 94-51.1 122.5-23.6s38.3 63.6-19.3 123.3-189.3 92.7-189.3 92.7 28.5-132.8 86.1-192.4zM162.7 557.9c-57.6 59.6-86.1 192.4-86.1 192.4l208.6-216c-28.5-27.5-64.9-36.1-122.5 23.6zM203.2 596.7c59.7 5.4 75.6-16.5 78.2-45 0.2-1.8 0.3-3.6 0.3-5.3 0.1-5.2-0.3-10.3-1.6-15.1-0.2-0.8-0.5-1.5-0.7-2.2-5.4-4.6-11.2-8.4-17.3-11.1-6.2-2.8-12.9-4.5-20-4.8-4.7-0.2-9.7 0.3-14.9 1.4-6.9 1.6-14.3 4.5-22 8.9-2.2 1.2-4.4 2.6-6.7 4-3.6 2.3-7.2 4.9-11 7.8-7.8 6.1-16.1 13.4-24.8 22.5-6.2 6.4-12 13.8-17.6 21.6 19.3 8.8 39.6 15.6 58.1 17.3zM212.6 474.7c59.7 5.4 71.4 29.8 68.9 58.3-2.6 28.5-18.5 50.4-78.2 45-59.7-5.4-138-64.6-138-64.6s87.6-44.1 147.3-38.7zM212.6 474.7c-59.7-5.4-147.4 38.8-147.4 38.8l216.3 19.6c2.5-28.6-9.2-53-68.9-58.4zM724.7 579.5c-47.9 7-89.3 37-110.7 80.4-53.9 109.3-209.8 109.3-263.7 0-21.4-43.4-62.8-73.5-110.7-80.4C118.9 562 70.8 413.8 158.1 328.7c34.7-33.8 50.5-82.5 42.3-130.2-20.6-120.1 105.5-211.7 213.4-155 42.8 22.5 94 22.5 136.9 0 107.9-56.7 234 34.9 213.4 155-8.2 47.7 7.6 96.4 42.3 130.2 87.1 85.1 38.9 233.3-81.7 250.8zM724.7 579.5c-47.9 7-89.3 37-110.7 80.4-53.9 109.3-209.8 109.3-263.7 0-21.4-43.4-62.8-73.5-110.7-80.4C118.9 562 70.8 413.8 158.1 328.7c34.7-33.8 50.5-82.5 42.3-130.2-20.6-120.1 105.5-211.7 213.4-155 42.8 22.5 94 22.5 136.9 0 107.9-56.7 234 34.9 213.4 155-8.2 47.7 7.6 96.4 42.3 130.2 87.1 85.1 38.9 233.3-81.7 250.8zM283 161.8c42.5-6.2 79.2-32.9 98.2-71.4 47.8-96.9 186.1-96.9 233.9 0 19 38.5 55.7 65.2 98.2 71.4 107 15.5 149.7 147 72.3 222.5-30.7 30-44.8 73.1-37.5 115.5 18.3 106.6-93.6 187.8-189.3 137.5-38-20-83.4-20-121.4 0-95.7 50.3-207.5-30.9-189.3-137.5 7.3-42.3-6.8-85.5-37.5-115.5-77.3-75.5-34.6-207 72.4-222.5zM266.9 177.9c42.5-6.2 79.2-32.9 98.2-71.4 47.8-96.9 186.1-96.9 233.9 0 19 38.5 55.7 65.2 98.2 71.4 107 15.5 149.7 147 72.3 222.5-30.7 30-44.8 73.1-37.5 115.5 18.3 106.6-93.6 187.8-189.3 137.5-38-20-83.4-20-121.4 0-95.7 50.3-207.5-30.9-189.3-137.5 7.3-42.3-6.8-85.5-37.5-115.5-77.3-75.5-34.5-207 72.4-222.5zM683.2 507.4c-37.6 5.5-70.2 29.1-87 63.2-42.4 85.9-164.8 85.9-207.2 0-16.8-34.1-49.4-57.7-87-63.2-94.8-13.8-132.6-130.2-64-197.1 27.2-26.5 39.7-64.8 33.2-102.3C255 113.7 354 41.7 438.8 86.3c33.7 17.7 73.9 17.7 107.5 0 84.8-44.6 183.8 27.4 167.6 121.8-6.4 37.5 6 75.7 33.2 102.3 68.7 66.8 30.8 183.3-63.9 197zM672.7 526c-37.6 5.5-70.2 29.1-87 63.2-42.4 85.9-164.8 85.9-207.2 0-16.8-34.1-49.4-57.7-87-63.2-94.8-13.8-132.6-130.2-64-197.1 27.2-26.5 39.7-64.8 33.2-102.3-16.2-94.4 82.9-166.4 167.6-121.8 33.7 17.7 73.9 17.7 107.5 0 84.8-44.6 183.8 27.4 167.6 121.8-6.4 37.5 6 75.7 33.2 102.3 68.7 66.9 30.9 183.4-63.9 197.1zM335.9 204.4c32-4.7 59.7-24.8 74.1-53.8 36.1-73.1 140.3-73.1 176.4 0 14.3 29 42 49.2 74.1 53.8 80.7 11.7 112.9 110.9 54.5 167.8-23.2 22.6-33.8 55.2-28.3 87.1C700.5 539.7 616.1 600.9 544 563c-28.7-15.1-62.9-15.1-91.5 0-72.2 37.9-156.5-23.3-142.7-103.7 5.5-31.9-5.1-64.5-28.3-87.1-58.5-56.9-26.2-156.1 54.4-167.8zM319.9 220.5c32-4.7 59.7-24.8 74.1-53.8 36.1-73.1 140.3-73.1 176.4 0 14.3 29 42 49.2 74.1 53.8 80.7 11.7 112.9 110.9 54.5 167.8-23.2 22.6-33.8 55.2-28.3 87.1C684.4 555.7 600.1 617 527.9 579c-28.7-15.1-62.9-15.1-91.5 0-72.2 37.9-156.5-23.3-142.7-103.7 5.5-31.9-5.1-64.5-28.3-87.1-58.4-56.8-26.2-156 54.5-167.7zM319.9 220.5c32-4.7 59.7-24.8 74.1-53.8 36.1-73.1 140.3-73.1 176.4 0 14.3 29 42 49.2 74.1 53.8 80.7 11.7 112.9 110.9 54.5 167.8-23.2 22.6-33.8 55.2-28.3 87.1C684.4 555.7 600.1 617 527.9 579c-28.7-15.1-62.9-15.1-91.5 0-72.2 37.9-156.5-23.3-142.7-103.7 5.5-31.9-5.1-64.5-28.3-87.1-58.4-56.8-26.2-156 54.5-167.7zM482.1 247.4l-16.5 104.3-104.3-16.5 94 48-47.9 94 74.7-74.6 74.7 74.6-47.9-94 94-48-104.2 16.5zM482.1 374m-18 0a18 18 0 1 1 36 0 18 18 0 1 1-36 0ZM482.1 247.4m-18 0a18 18 0 1 1 36 0 18 18 0 1 1-36 0ZM361.3 335.7m-18 0a18 18 0 1 1 36 0 18 18 0 1 1-36 0ZM602.9 335.7m-18 0a18 18 0 1 1 36 0 18 18 0 1 1-36 0ZM556.3 477.2m-18 0a18 18 0 1 1 36 0 18 18 0 1 1-36 0ZM407.7 477.2m-18 0a18 18 0 1 1 36 0 18 18 0 1 1-36 0Z"  horiz-adv-x="1024" />

    
    </font>
</defs>
</svg>
